<?xml version="1.0" encoding="utf-8"?>
<!-- Generator: Adobe Illustrator 19.0.0, SVG Export Plug-In . SVG Version: 6.00 Build 0)  -->
<svg version="1.1" id="logo_1_" xmlns="http://www.w3.org/2000/svg" xmlns:xlink="http://www.w3.org/1999/xlink" x="0px" y="0px"
	 viewBox="0 0 2700 600" style="enable-background:new 0 0 2700 600;" xml:space="preserve">
<style type="text/css">
	.st0{fill:#39945F;}
	.st1{fill:#45B273;}
	.st2{fill:#454545;}
</style>
<g id="icon_1_">
	<g id="_x30_2">
		<g>
			<path class="st0" d="M590.8,102.2l-85.9,148.3c18.1-5,37-3.5,53.3,5.7c36.3,20.6,46.3,71.8,22.2,114.3
				c-24.1,42.5-73.1,60.3-109.4,39.7c-16.9-9.6-28-25.8-32.8-44.6l-94,162.3h243.5L712,312.5L590.8,102.2z"/>
		</g>
	</g>
	<g id="_x30_1">
		<g>
			<path class="st1" d="M552.2,266.9c-15.7-8.9-34.2-9.5-51.3-3.2l-13.1-7.6L583.5,93l-248.7,0L211,308l123.6,215.5l99.8-175.1
				l13.3,7.7c3.2,18.4,13.3,34.5,29.3,43.6c31.3,17.8,73.5,2.5,94.3-34.2C592.1,328.8,583.5,284.7,552.2,266.9z"/>
		</g>
	</g>
</g>
<g id="code">
	<g>
		<path class="st1" d="M1904.5,253.9c-28.7,0-48.9-23.9-48.9-54.5v-0.6c0-29.7,20.2-54.2,48.9-54.2c19.6,0,33.1,9.6,44.8,23.9
			l42.7-32.9c-18.1-24.8-45.1-42.2-86.9-42.2c-62,0-107.7,46.6-107.7,106v0.6c0,60.9,47.1,105.4,105.6,105.4
			c45.1,0,71.1-19.5,90.4-46l-42.7-30.3C1938.5,244,1925.9,253.9,1904.5,253.9z M2113.2,93.4c-63.2,0-110.6,47.5-110.6,106v0.6
			c0,58.5,46.8,105.4,110,105.4c63.2,0,110.6-47.5,110.6-106v-0.6C2223.2,140.3,2176.4,93.4,2113.2,93.4z M2165,200
			c0,29.4-20.8,54.5-51.8,54.5c-31.3,0-52.7-25.6-52.7-55.1v-0.6c0-29.4,20.8-54.5,52.1-54.5c31.3,0,52.4,25.3,52.4,55.1V200z
			 M2328.8,97.4h-79.3v203.9h78.1c73.4,0,116.5-43.7,116.5-102.5v-0.6C2444.1,139.4,2401.7,97.4,2328.8,97.4z M2386.2,199.7
			c0,32.9-22.5,51.6-56.8,51.6h-23.1v-104h23.1c34.2,0,56.8,19.2,56.8,51.8V199.7z M2526.9,253.3V221h98.3v-44.6h-98.3v-31.2h108.6
			V97.4h-164.7v203.9h166.2v-48.1H2526.9z"/>
	</g>
</g>
<g id="builder">
	<g>
		<path class="st1" d="M1789.6,449.8c13.4-5.8,23.3-16.1,23.3-33.5v-0.4c0-10.3-3.7-18.3-9.7-24.5c-8.8-8.6-22.2-13.3-41.2-13.3
			h-77.4v150.3h77.9c36,0,57.2-15.7,57.2-41.4v-0.4C1819.5,466.1,1807.9,455.8,1789.6,449.8z M1725.3,411.6h27.4
			c12.3,0,19,4.5,19,12.9v0.4c0,8.8-7.3,13.1-20.1,13.1h-26.3V411.6z M1777.7,481.2c0,8.8-7.1,13.7-20.1,13.7h-32.4v-27.7h31.9
			c14,0,20.5,5.4,20.5,13.5V481.2z M1933,462.7c0,21-11,30.9-28,30.9c-16.8,0-27.8-10.3-27.8-32v-83.5h-42.3v84.4
			c0,47,27,68.7,69.7,68.7c42.9,0,70.8-21.5,70.8-69.8v-83.3H1933V462.7z M1999,528.4h41.9V378.1H1999V528.4z M2108.2,378.1h-41.8
			v150.3h115v-36.5h-73.1V378.1z M2255.7,378.1h-58.5v150.3h57.6c54.1,0,85.9-32.2,85.9-75.6v-0.4
			C2340.7,409,2309.5,378.1,2255.7,378.1z M2298,453.5c0,24.3-16.6,38-41.8,38h-17v-76.7h17c25.2,0,41.8,14.2,41.8,38.2V453.5z
			 M2401.8,469.1h72.5v-32.9h-72.5v-23h80v-35.2h-121.5v150.3h122.5V493h-81.1V469.1z M2605.2,476c18.8-7.9,31.1-23.2,31.1-46.4
			v-0.4c0-14.8-4.5-26.2-13.4-35c-10.1-10.1-26.1-16.1-49.2-16.1h-71.4v150.3h41.8v-45.5h18.6l30.4,45.5h48.1L2605.2,476z
			 M2594.4,432.4c0,11-8.4,17.8-22.4,17.8h-27.8V414h27.6c13.8,0,22.7,6,22.7,18V432.4z"/>
	</g>
</g>
<g id="My">
	<g>
		<path class="st2" d="M1063.2,261.8L959.5,93.5H832.1v434.9h118V279.2l110.6,169.6h2.5l111.2-170.2v249.7h119.9V93.5h-127.4
			L1063.2,261.8z M1642.2,93.5l-90.1,158.4l-89.5-158.4h-137.3l165.9,272.1v162.8h120.5V363.7L1777,93.5H1642.2z"/>
	</g>
</g>
</svg>
