<?xml version="1.0" encoding="utf-8"?>
<!-- Generator: Adobe Illustrator 20.1.0, SVG Export Plug-In . SVG Version: 6.00 Build 0)  -->
<svg version="1.1" id="Layer_1" xmlns="http://www.w3.org/2000/svg" xmlns:xlink="http://www.w3.org/1999/xlink" x="0px" y="0px"
	 viewBox="0 0 288 488" style="enable-background:new 0 0 288 488;" xml:space="preserve">
<style type="text/css">
	.st0{fill:#EF7923;stroke:#000000;stroke-width:2;stroke-linecap:round;stroke-linejoin:round;stroke-miterlimit:10;}
	.st1{opacity:0.85;fill:#A2D9EF;stroke:#000000;stroke-width:2;stroke-linejoin:round;stroke-miterlimit:10;}
	.st2{fill:#8794CA;stroke:#000000;stroke-width:2;stroke-miterlimit:10;}
	.st3{fill:#FFFFFF;stroke:#000000;stroke-width:2;stroke-miterlimit:10;}
	.st4{fill:#52100F;stroke:#000000;stroke-width:2;stroke-miterlimit:10;}
	.st5{fill:#EF7923;}
	.st6{fill:#DA92BF;stroke:#000000;stroke-width:2;stroke-linecap:round;stroke-linejoin:round;stroke-miterlimit:10;}
	.st7{fill:#D04C16;}
	.st8{fill:#7A88A5;}
	.st9{fill:#697996;}
	.st10{fill:#DFF1F7;}
	.st11{fill:none;stroke:#000000;stroke-width:2;stroke-linecap:round;stroke-linejoin:round;stroke-miterlimit:10;}
	.st12{fill:#883E88;}
	.st13{fill:#EC6725;}
	.st14{fill:#DADADA;}
	.st15{fill:#B672A0;}
	.st16{fill:#D3D1EA;}
	.st17{fill:none;}
	.st18{fill:#EFC7E0;}
</style>
<path class="st0" d="M91.5,306.3c0,0-4,13.4-11.7,21.2c-5.7,5.7-12.5,9.4-25.6-2.2c-9.7-3.3-11,8.6-11,8.6s14.3,18.3,31.3,12.9
	c15.7-4.9,21.2-21.2,23.3-28.2S98.8,290.6,91.5,306.3z"/>
<path class="st0" d="M46.9,337.3c-7-7.3-13.8-9.7-13.8-9.7s-5,1.9-4.2-3c0.6-3.6,4.2-3.6,5.2-0.8c2.2,0,8.1,2.6,12.7,6.3"/>
<path class="st0" d="M46.8,332.3c-5.2-7.4-7.4-14.3-7.4-14.3s-6.2-2.5-1.5-6.7c2.5-2.2,5.9,0.3,5.3,4.3c1.7,3.5,5.7,9.2,9.6,13"/>
<path class="st0" d="M58.8,329.6c-4.8-9-3.7-16.7-3.7-16.7s2.8-4.6-1.5-6c-3.5-1.2-5.3,3.1-3.6,5.5c-1.1,2.6-0.3,11.9,1.6,17.8"/>
<path class="st1" d="M71.8,195.5c0.5-0.2-22.2-36.7-23.9-40.9c-13.8-34.1-6.5-74,22.8-97.5c13.7-11,34.1-12.8,44.8-27.5
	c-1.5,2.1,21.6,9.6,22.6,9.9c16,4,29.9,9.3,41.6,21.6c28.1,29.3,26.2,78.2,3.7,110.2c-2.3,3.2-25.5,31.1-21.8,33.4
	c-5.3-3.3-31.8-20.2-50.7-18C91.9,188.7,72,195.4,71.8,195.5z"/>
<path class="st0" d="M91.7,163.6c4.1,4.4,8.8,9,10.1,12.6c2.8,7.9,0,9.7,0,9.7l22.5,1.6c0,0-20-15.8-29.4-27.9L91.7,163.6z"/>
<path class="st0" d="M96,187.5c0,0-12.2-11.6-7-19.9c5.2-8.4,13.7-15,14.7-21.7s0.7-27,2-30.7c1.3-3.7-13.6-1.3-11.8,3
	c1.8,4.3,7.2,20.3,2.9,29.3c-4.3,9.1-9.9,13-12.8,20.7c-2.9,7.7,2.3,17,0,22.3C81.6,195.9,94.6,194.7,96,187.5z"/>
<path class="st0" d="M85.5,423.1c0,0-10.5,12.9-37.3,8.6c-14.7-2.3-16.9-10.5-14.1-15c3.7-6,14.7-3.8,20.9-6
	c7.3-2.6,7.8-6.8,9.4-5.7c2.8,1.9-2.3,13.2-22.5,11.3c5.8,1.1,24,1.7,33.5-17.9s14-30.1,16.1-38.9c2.3-9.7,6-47.8,3.9-54.2
	S78,295.1,78,295.1s-48.7-9.5-30.7-30.2s24.5-47.7,24.5-47.7s12.5-28.3,41.5-28c29,0.3,40.5,33.3,47.5,45.8
	c5.5,9.9,14.6,23.5,20.5,39.4c0,0,1,46.9-8.1,66.8s-20.4,36.7-23.5,39.5s-11.4,17.4,3,28.5c9.6,7.5,30.2,7.2,36.4,2.9
	c5-3.4,17.4-9.3,31.7-9.7c19-0.5,31-14.8,35.2-18s15.8-5.3,15.5-1.9s-9.2-0.8-14,7.4s-12.8,16.8-24.2,19.2s-30,10.5-41.5,19.5
	s-48,3.8-57.2,0s-25-2.6-26.2,2.2c-2.2,8.8,1.8,14,16.2,12.2s22.5,7.8,30.2,10.2s14-0.8,14.2,2.2s-12.8,5.5-33-3.2
	c-15.5-6.7-22.9,4.7-36.1-0.6c-14.9-6-16.6-21.7-13.1-37.2"/>
<path class="st0" d="M19.8,280.4c-0.7-8.7,6.3-15.1,14.5-16.1c6.6-0.9,11.9,1.2,18.5,1.7c9.4,0.7,19.6-1.8,28.8-3
	c5.1-0.7,10.8-0.5,15,2.6c4.5,3.4,6.2,9.8,4.7,15.2c-2.2,7.7-9.8,12.4-17,14.9c-12.6,4.2-28.2,4.7-41.3,2.5
	C34.4,296.6,20.8,292.2,19.8,280.4z"/>
<path class="st2" d="M159.3,228.5c0,0-21.8-19-47-20.5s-39.5,8-42.2,10.2c-3.8-0.8-6.2-5.9-1.6-8.5c-0.6-4.6-0.9-15.5-0.9-15.5
	s19.8-10.5,43-10.2s45,10.5,54,19.2c-1.2,9-4.5,16.2-4.5,16.2S165.8,225.2,159.3,228.5z"/>
<path class="st0" d="M181.6,357.4c0,0,3,14.8,8.3,18c-0.2,2.7,2.7,5.4,5.3,3.2c2.9-2.5,1.3-5.2-1.7-5.9c-2.5-3.2-6.4-17-4.4-27.9
	c3.4-18.4,3.7-37.2,0.7-54.2c-0.5-2.7-6.7-21.3-12.2-24.6c-3.4,0-6.2,2.7-8,6.5c-2.4,4.7,1.1,5.5,2.1,11.1c2.4,13,8.8,17.1,5.4,40.5
	c-4.2,29.4,2.6,48.4,4,54c-1,2.7,0.8,5.5,4.3,4.2c3.5-1.3,1.8-5.3-0.1-5.9c-0.5-2.8-0.8-5.7-0.8-8.5"/>
<path class="st0" d="M187.9,343.9c0.8,11.3,12.6,22.5,12.6,22.5s6.1,0.6,3.2,5.7c-1.9,3.2-6.3,0.9-6.5-2.1c-2.6-1.3-8.4-7.3-10.7-13
	"/>
<circle class="st3" cx="93.8" cy="105.6" r="19.3"/>
<path class="st0" d="M88.4,160.3c-3.1-4-5.4-8.9-4.1-13.4c3.3-11.3,19.3-10.3,27.3-15.3c8-5,16.4-21,16.4-21s7.6,9.7,12.9,13
	c-6.3,1-12.3,6.3-23.3,14c-11,7.7-22,1.3-27,11c-0.9,1.7,0,4.2,1.4,6.9L88.4,160.3z"/>
<circle class="st3" cx="143.3" cy="107.6" r="19"/>
<path class="st4" d="M26.6,280.6c-0.6-5.8,4.1-12.3,12.1-10.8c19.1,3.5,31.8-0.1,39.5-0.9c4.3-0.5,9-0.3,12.5,1.7
	c3.8,2.3,5.2,6.5,3.9,10.2c-1.8,5.2-8.2,8.3-14.2,10c-10.5,2.8-23.5,3.1-34.5,1.7C38.8,291.5,27.4,288.5,26.6,280.6z"/>
<circle cx="90.2" cy="107.6" r="6.3"/>
<ellipse transform="matrix(0.9201 -0.3916 0.3916 0.9201 -92.549 87.8879)" class="st5" cx="169.2" cy="270.8" rx="8.7" ry="14.5"/>
<path class="st6" d="M87.8,269.5c-0.3-0.1-7.1,9.3-22.9,7c-7.8-1.1-17.9-7.8-22.6-13.8c-11.4-14.6-5.6-36.6-2.4-43.2
	c7.1-14.8-10-20.3-5.8-25.5c4.5-5.6,16.1,6.6,16.8,15.4c0.7,9.7-5.8,18.1-7.2,27.5c-1.3,9.4,2.4,19.4,9.5,25.7
	c4.4,3.9,10.1,6.3,15.9,7C75.3,270.2,81.8,267.2,87.8,269.5z"/>
<path class="st7" d="M257.1,389c-4.9,7.9-9.9,15.3-21.2,18.5c-11.3,3.2-34.2,11.5-43,19.3c-9.8,8.7-40.4,6.8-59.4,0.6
	c-9.5-3.1-24.5-1.6-26,3.2c0.1-8,2.4-18.1,4-25.9c2-9.8,10-13.2,11.6-5.6c2.3,10.7,8.7,17.5,14,21.7c6,4.7,42.4,9.3,48.8,6.6
	c5.9-2.5,8.1-7.4,13.5-10.4c6.5-3.6,18.9-6.9,27.5-8.8c18.2-3.9,24.1-10.9,30.3-19.2"/>
<path class="st8" d="M69.6,210.2c0,0,20.6-11.7,47.7-8c-21.2-7.4-38.8-0.9-48.7-7.3C68.7,199.8,68.8,205.4,69.6,210.2z"/>
<path class="st7" d="M84.6,422.9c0,0-9.2,12.3-35.9,8c-6.5-1-17.5-5.3-13.5-13.9c-0.8,2.4,0,4.5,2,6c6.8,5,18,3.7,25.5,1.2
	c8.1-2.7,14.9-8.2,19.8-15.2c3.5-4.9,6.1-4.7,9-4.7C90,406.3,85.5,420.3,84.6,422.9z"/>
<path class="st2" d="M76.8,194.3c4.1,1.5,6,6.8,0.5,10.4c-3.6,0.2-6.6-2-6.7-4.9S73.2,194.4,76.8,194.3z"/>
<circle class="st2" cx="120.6" cy="194.8" r="5.3"/>
<path class="st2" d="M157.6,213.9c-2.4-2.6-2.7-8,2.4-10.1c4.2,1,7,4,6.3,6.8S161.7,214.9,157.6,213.9z"/>
<path class="st7" d="M95,314.4c0,0-4.6,18.2-17.8,25.6c-13.2,7.5-22.4,1.4-22.4,1.4s-14-12.7-18.2-14.3s-3.3-1.4-3.3-1.4
	s-3.1,1.5-3.4-0.7c-0.1,1.7-0.4,2.6,3.4,1.7c2.5,1.1,10.3,5.7,15,11.4s15.6,10.8,24.2,8.3s14.9-8.4,18.2-14.1
	c3.4-5.7,3.9-7.5,3.9-7.5L95,314.4z"/>
<path class="st9" d="M117.3,192.1c0,0,0.5,6.6,7.4,3.9c-0.8,2.6-4,4.4-6.8,2C114.9,195.4,117.3,192.1,117.3,192.1z"/>
<path class="st9" d="M157.3,207.6c0,0,7.2,7.1,8,1.4c0.2,0.7,0.7,3.6-4,4.2c-2.3,0.3-3,0-3,0S156.1,210.6,157.3,207.6z"/>
<path class="st9" d="M79.2,201.2c0,0-6.4,0.6-6.8-4c-0.9,0.5-2.2,3.9,1.6,5.9c1.5,0.8,2.8,0.6,2.8,0.6S78.6,202.8,79.2,201.2z"/>
<path class="st7" d="M85,296.5c0,0,10.7-3.8,13.1-8.5c0,0,37.7,8.5,40.2,18.8c0,0-36.8,2.4-43.5,37c1.4-13,2.5-30.5,1.7-36.7
	C95.6,299.4,85,296.5,85,296.5z"/>
<circle class="st10" cx="157" cy="150.7" r="3"/>
<circle class="st10" cx="135.6" cy="156.5" r="7.4"/>
<circle class="st10" cx="154" cy="173.5" r="5.3"/>
<circle class="st10" cx="162.3" cy="74.2" r="3.9"/>
<circle class="st10" cx="150.3" cy="62.1" r="2.6"/>
<path class="st7" d="M145.3,272.5c0,0,8,2.4,11.8-5.8c3.9-8.6,1.8-19.8,0.5-22.3c1.1,6.6,0.2,16.2-3.5,21.4
	C150.3,271.5,145.3,272.5,145.3,272.5z"/>
<circle class="st10" cx="74.5" cy="81" r="5.2"/>
<path class="st7" d="M147.4,279.2c0,0,4.8,4.3,10.2-0.3c5.6-4.8,8-13.5,8-15.6c-1.5,5-5.4,11.5-9.7,14
	C151.2,280.1,147.4,279.2,147.4,279.2z"/>
<path class="st11" d="M156.9,244c0,0,3.3,25-13.1,28.3"/>
<path class="st11" d="M164.8,263.8c0,0-5.7,16.4-17,14.8"/>
<path class="st7" d="M138.5,265.6c0,0,8,2.4,11.8-5.8c3.9-8.6,1.8-19.8,0.5-22.3c1.1,6.6,0.2,16.2-3.5,21.4
	C143.4,264.5,138.5,265.6,138.5,265.6z"/>
<path class="st11" d="M150.2,236c0,0,4.5,24.8-11.7,28.9"/>
<path class="st12" d="M157.8,237.4"/>
<path class="st13" d="M87.1,435.2c0,0,5,12.6,18.3,14.6c8.9,1.4,12.4-3.4,20.6-3s21.6,9.6,27.5,9.9c-11.8-0.8-19.2-7.7-27.6-7.4
	s-13,3.2-20.1,3C98.8,452.2,89.5,446.7,87.1,435.2z"/>
<path class="st12" d="M182.1,379.1c0,0,1.9,2,4.6,0.6C186.7,381.6,181.6,383,182.1,379.1z"/>
<path class="st12" d="M190.9,375.6c0,0,2.3,2.1,4.9,0.6C195,379.1,190.9,379.3,190.9,375.6z"/>
<path class="st12" d="M198.2,369.7c0,0,2.3,2.4,5.2,0.6C202.2,374,198.6,372.9,198.2,369.7z"/>
<path class="st12" d="M198.2,369.4c0,0,0.3-1.3,1.2-1.8c-1.8,0.1-9.2-5.7-11.6-10C191.1,364.1,195.8,368.4,198.2,369.4z"/>
<path class="st12" d="M190.9,374.9c0,0,0.6-1.1,1.6-1.4c-1.7-0.4-6.9-7.3-8.8-12C185.1,367,187.5,373.3,190.9,374.9z"/>
<path class="st14" d="M126.5,101.3c0,0,2.7,11.6,12.3,15.7s19.6,0.3,19.6,0.3s-4.7,8.4-16.3,8.4C130.9,125.7,121.9,112,126.5,101.3z
	"/>
<ellipse transform="matrix(0.8167 -0.5771 0.5771 0.8167 -39.3883 107.5986)" cx="149.7" cy="115.8" rx="6.3" ry="4.6"/>
<path class="st14" d="M76.8,99.4c0,0,2.7,11.6,12.3,15.7s20.1,0.3,20.1,0.3s-3.6,8.8-16.2,8.8C81.8,124.2,71.5,111.2,76.8,99.4z"/>
<path class="st7" d="M37.9,312.9c0,0,1.1,3.6,3.9,3c-1.7,0.3-1.6,1.3-1.6,1.3S35.3,315.7,37.9,312.9z"/>
<path class="st7" d="M51.2,308.5c0,0-0.4,3.9,3.6,2.6c-0.2,0.9-0.6,1.8-0.6,1.8c-1-0.2-2.6-0.4-3-0.4
	C50.4,311.7,49.8,309.4,51.2,308.5z"/>
<path class="st15" d="M37.1,247.7c0,0,4.3,13.7,14.9,19.7s20.5,4,22.4,2.8c2.6-0.2,9.2-1.6,11.7-0.4c-1.2,1.1-8.8,8.8-22.8,5.2
	s-21.2-13.8-22.6-16.5C39.4,255.9,37.7,252.1,37.1,247.7z"/>
<path class="st16" d="M127.2,188.6c0,0,16.5,3.8,29.3,12.4C144.7,200.5,127.2,188.6,127.2,188.6z"/>
<path class="st17" d="M153.2,232.5c-4-2.6-8.2-4.7-12.7-6.4c-3.9-1.4-8-2.5-12.1-2c-4.1,0.5-8.1,3.1-9.5,6.9"/>
<path class="st18" d="M38.6,194.8c-1.2-0.7-2.6,0-2,1.3c0.5,1.1,2.5,1.1,3.4,1.4c1.6,0.6,2.7,2.8,4.3,3c0.2-0.5,0-1-0.4-1.4
	C42.4,197.4,40.7,195.9,38.6,194.8"/>
</svg>
