<?xml version="1.0" encoding="utf-8"?>
<!-- Generator: Adobe Illustrator 20.1.0, SVG Export Plug-In . SVG Version: 6.00 Build 0)  -->
<svg version="1.1" id="Layer_1" xmlns="http://www.w3.org/2000/svg" xmlns:xlink="http://www.w3.org/1999/xlink" x="0px" y="0px"
	 viewBox="0 0 288 288" style="enable-background:new 0 0 288 288;" xml:space="preserve">
<style type="text/css">
	.st0{fill:#34204F;stroke:#000000;stroke-width:1.5;stroke-linecap:round;stroke-linejoin:round;stroke-miterlimit:10;}
	.st1{fill:#5D247D;stroke:#000000;stroke-width:1.5;stroke-linecap:round;stroke-linejoin:round;stroke-miterlimit:10;}
	.st2{fill:#D62416;stroke:#000000;stroke-linecap:round;stroke-linejoin:round;stroke-miterlimit:10;}
	.st3{fill:#78C5B8;stroke:#000000;stroke-linecap:round;stroke-linejoin:round;stroke-miterlimit:10;}
	.st4{fill:#4DA695;}
	.st5{fill:#FFFFFF;stroke:#000000;stroke-linecap:round;stroke-linejoin:round;stroke-miterlimit:10;}
	.st6{fill:#B62018;stroke:#000000;stroke-miterlimit:10;}
	.st7{fill:#4DA695;stroke:#000000;stroke-miterlimit:10;}
	.st8{fill:#78C5B8;}
	.st9{fill:#464999;stroke:#000000;stroke-width:1.5;stroke-linecap:round;stroke-linejoin:round;stroke-miterlimit:10;}
	.st10{fill:#373F90;}
	.st11{fill:#4C266C;}
	.st12{fill:none;stroke:#000000;stroke-linecap:round;stroke-linejoin:round;stroke-miterlimit:10;}
	.st13{fill:#464999;}
	.st14{fill:#651A13;stroke:#000000;stroke-linecap:round;stroke-linejoin:round;stroke-miterlimit:10;}
	.st15{fill:#BB3C57;}
	.st16{fill:#FFFFFF;}
	.st17{fill:none;stroke:#000000;stroke-width:1.5;stroke-linecap:round;stroke-linejoin:round;stroke-miterlimit:10;}
	.st18{fill:#474747;stroke:#000000;stroke-linejoin:round;stroke-miterlimit:10;}
	.st19{fill:#4A494A;stroke:#000000;stroke-miterlimit:10;}
	.st20{fill:none;stroke:#929292;stroke-width:0.5;stroke-linecap:round;stroke-linejoin:round;stroke-miterlimit:10;}
	.st21{fill:#E66F6A;}
	.st22{fill:#422460;}
	.st23{fill:#9C4B97;stroke:#000000;stroke-miterlimit:10;}
	.st24{fill:#5D247D;}
	.st25{fill:#9C4B97;}
	.st26{fill:#B62018;}
	.st27{fill:#D62416;}
</style>
<path class="st0" d="M115.9,58.9c0,0,6.7-18.4,18.6-18.4c3.6,0,6.3,0,6.3,0s-14.9,3.7-18.4,19.1C120.2,58.9,115.9,58.9,115.9,58.9z"
	/>
<path class="st1" d="M122.8,76.8c-3.1,0,0,0-5,0s-9.1-3.9-9.1-8.7c0-4.8,4.1-8.7,9.1-8.7c0.7,0,1.2,0,1.6,0c1.7,0,1.4,0,3.4,0
	C123.4,60.5,122.8,75.5,122.8,76.8z"/>
<path d="M114,224.2c1.1-2.3,2.4-4.5,3.9-6.5c1.4,3,2.9,6,4.3,8.9c0.8-3.9,2.2-7.7,4.2-11.2c2.2,3.7,4.5,7.3,6.9,10.8
	c1.4-3.1,2.8-6.2,4.3-9.2c4,1.7,4.2,8,8.1,10c1.3-2.9,5.6-10.1,6.2-10.1c0.5,0,6.3,8.7,8.9,12.1c1.4-3.2,2.8-6.5,4.2-9.7
	c1.8,2.3,3.6,4.6,5.4,6.9c1.1-3.1,2.3-6.2,3.5-9.2c0.2-0.6,0.7-1.3,1.3-1.2c0.2,0.1,0.4,0.2,0.6,0.4c1.5,1.3,2.9,2.7,4.4,4
	c0-4.2-1.7-8.1-3-12c-2.5-7.7-3-15.9-5.1-23.8c-2.6-9.5-7.5-18.2-10.8-27.5c-3.7-10.4-5.5-21.4-8.7-31.9c-0.2-0.6-0.4-1.3-0.9-1.7
	c-0.5-0.4-1.2-0.5-1.8-0.5c-7.5-0.5-24.5-8.9-29.9-3.6c-2.6,2.5-5.9,14.6-6.8,18.1c-2.8,11.8-6.1,70.9-6.2,84.7
	c0.8-1.2,2.1-4.1,4-3.3C111.3,218.9,114.1,224.1,114,224.2z"/>
<path class="st2" d="M125.6,270.7l-16.9,3.4c0,0-9.1,1.2-11.3-0.9s-0.9-4.7,3-5.6c1.9-0.4,13.8-4.1,13.5-8.6c6.5-2,11,0.2,11,0.2
	L125.6,270.7z"/>
<path class="st3" d="M114.2,221.2l0.8,38.6c1.6,1.1,3.9,0.8,3.9,0.8c2,0,3.7-0.3,4.6-1.3l2.5-37.1c0,0,1-7.5-2.7-12.1
	c-3.7-4.6-8.9,2.5-8.9,2.5S114.1,216.7,114.2,221.2z"/>
<path class="st4" d="M123.9,231.1c-2.4,9.5-1.7,15.8-3.2,25.5c-0.1,0.6-1.1,3.1-5.1,3c2.8,1.1,6.7,0.3,7.3-0.4
	c0.1-1.3,2.1-23.1,2.6-35.7c0.2-5.3-0.7-8.8-0.7-8.8S125.4,225.1,123.9,231.1z"/>
<path class="st5" d="M125.6,270.7v4c0,0-16.3,3.5-17.9,3.4c-1.6-0.1-8.9,0.6-11.4-1.7c0-1.5,0-4,0-4s2.8,3.1,11.2,1.8
	C116,272.9,125.6,270.7,125.6,270.7z"/>
<path class="st6" d="M187.8,260.3l-8.7,6.6c-1.1,0.9-2.4,1.5-3.8,1.7c-2.6,0.4-6.6,0.7-7.5-1.2c-1.3-2.9-0.3-4.3,2-5.4
	c1.2-0.6,8.1-7.6,8-13.6c3.9-2.7,9.3,0,9.3,0L187.8,260.3z"/>
<path class="st5" d="M187.8,260.3v4.2c0,0-8.1,7.9-13.6,8.4c-1,0.1-5.4,0.8-6.9-2.3c0-2,0-4.2,0-4.2s1.4,2.8,6.8,2.4
	C179.7,268.3,187.8,260.3,187.8,260.3z"/>
<path class="st7" d="M170.6,213.8l16,34.4c-0.3,1.3-1.5,2.4-3.3,3.5c0,0-2.7,1.2-4.5-0.5l-21.7-34c-1.2-2,1-10.2,3.2-10
	C162.4,207.2,166.6,207.1,170.6,213.8z"/>
<path class="st8" d="M180.6,251.4c0,0,1.8-2.6-0.5-8c-1.1-2.5-11.7-30.3-11.2-31c2.1,1.8,6.5,12.4,10.5,21.4
	c3.5,8,6.7,14.5,6.7,14.5S184.6,252.1,180.6,251.4z"/>
<path class="st9" d="M121.6,119.4c-2.5,4.1,5.3,5.7,1.6,23.9c-1.3,6.4-1.7,17.3-1.2,24.1c-2.2,4.9-3,14.3-4.8,18.4
	c-2.2,5-5.1,19.4-3.1,24.5c0.1,0.9,0,1.8,0.1,2.8c6.6-1,8.7,0.6,11.8,3.1c0.4-1.6,4.1-5.5,7.4-11.3c5.6-9.8,6.6-21.1,8.8-24.8
	c0.4-0.7,3.5-0.6,3.9,0.1c1.5,16.7,2.9,16,9.8,35.8c0.2,0.7,10.2-1.3,11.9-5.8c2.5-6.7,1.4-25.2,1.8-32.2c0.8-14-4.8-13.7-7.2-27.5
	c-0.9-5-1.8-10-3-14.9c-3.3-12.5-9.2-24.1-15.1-35.7c-2.3-4.5-7.6-9.6-11.4-3.7C129.1,102.1,125.2,113.5,121.6,119.4z"/>
<path class="st10" d="M122.4,121.6c0,0,2.4,7.5,13.2,5c7.2-1.6,7.1-0.6,6.2,0.4c-0.5,0.5-1.1,0.8-1.8,1.1c-1.9,0.7-7.3,3.2-8.2,7.8
	c-1.1,5.6-0.6,22.3,3.8,26.7c4.4,4.4-9.4,7.8-11.6,14.3s1,7-1.8,10.9s-2.3,10-2.8,10.8c-0.4-1.2-2.4-9.8-2.4-9.8s2.5-8.3,3.3-12.9
	c0.8-4.2,2.3-8.5,2.3-8.5s0.1-15.6,0.5-20s2-12.4,1.7-16.2C124.4,125.4,121.7,123.1,122.4,121.6z"/>
<path class="st10" d="M156.4,215.2l-12-33.5l-4.5,2.3c0,0-2.9,10.4-3.6,13c-2.3,7.7-10.6,18.2-10.6,18.2s-2.9-3.6-8.5-2.8
	c0.8-1.2,1.2-2.6,1.6-3.8c1.9,2.5,5.8,1.2,7.9-1.1c3.3-3.6,4.3-11.6,4.1-13.3c-0.8-8.2,5.4-15.1,5.4-15.1l12-5.8c0,0,0,14.2,3.3,17
	c3.3,2.8,3.2,8.8,3.5,12.9c0.1,1.7,0.4,3.3,0.7,4.7c0.3,1.3,1.2,3.8,2.6,3.9c1.5,0.1,2,0.3,4-1.9c1.7-1.8,3.3-8.1-0.5-13.8
	c-2.4-3.6-0.3-24.5-0.3-24.5l8.8,1.8l-1.4,20c0,0,0.1,13.4-1.2,16.4c0,0-1.8,2.6-3.6,3.4C162.6,213.8,159.1,215.4,156.4,215.2z"/>
<g>
	<path class="st1" d="M141.5,88.3c-24.6,0-42.6,77.9-47.4,108c-2,12.9-2.7,33.3-2,35.7l3.3-10.2c0.9,4.1,2.1,10.2,5,12.9
		c0-4.4-1-9.3,1.6-11.8c1.2,3.9,3.9,6.8,9,9.1c-1.8-7.3-1-13.3,4.9-19.5c2.9-3.1,4.4-10.3,2.5-17.9c-1-4-4.9-8.7-0.9-16.1
		s2.5-17.2,0.9-21.2c-3.9-9.4-1-28.8,1.8-38.1c2.6-8.9,17.5-20.9,17.5-20.9c1,2.8,8.4,12,8.2,19.9c-0.1,3.5,1.1,10.4,4.4,12.8
		c4.2,3.1,5.3,9.3,4.8,13.5c-0.6,4.5,2.5,13.3,4.2,15.5c2.5,3.1,3.4,10.7,2.9,14.8c-0.6,5,0.5,15.5,3.5,18.3
		c3.4,3.2,5.8,12.9,4.2,18.9c-2,7.8,1.6,10,4.7,19.9c1.9-1.2,1.5-3.5,2.8-6.8c2,2,6.5,6.8,10,9.5c-1.3-5-0.8-9.1,0.3-11.9
		c1.8,2.2,4.3,6.9,10.8,9.3c-1.8-4.7,1.5-9.9,3.2-11.9c1.9,2.1,8.8,6,16.2,5.2C186.6,199.5,172.8,88.3,141.5,88.3z"/>
</g>
<path class="st7" d="M135.5,96.8c-1.1-0.3-1.9-1.3-2.3-2.5c-1.4-4.3-4.6-15.1-0.6-17.8c6.4-4.2,11.1,8.3,12.8,13.6
	c0.5,1.4,0.1,3-0.9,3.9C142.6,95.7,139.3,97.9,135.5,96.8z"/>
<path class="st11" d="M112.7,163.8c-0.7,5.4-4.1,9.9-7.4,14.2c1.3-2.1,1.8-4.6,1.4-7c-0.3-2.1-1.3-4-1.1-6.1c0.1-2,1.3-3.8,1.7-5.8
	c0.5-2.4-0.2-4.9-0.3-7.3c-0.4-5.5,1.7-11.1,5.6-14.9c-0.3,0.3-0.3,2.7-0.4,3.2c-0.2,1.2-0.7,2.3-0.8,3.4c-0.3,1.9-0.1,4,0,5.9
	C111.7,154.1,113.3,158.9,112.7,163.8z"/>
<path class="st3" d="M123.2,126.2c-1.3,6.4-8.8,21.7-10.9,25.3c-1.1,1.8-3.5,2-4.9,0.5c-7.3-8.3-14.4-23.2-15.3-25.5l4.3-0.5
	c1,2.7,8.9,11.4,13,15.2c0,0,14.1-29.7,19.2-34.6C128.6,106.6,118.2,118.7,123.2,126.2z"/>
<path class="st4" d="M122.7,126.4c0,0-2.2,8-6.1,15.7c-2.6,5.1-4.4,10.5-6.6,10.5c-1.8,0-3.9-2.6-5.8-5.4c-2.4-3.5-4.7-7.2-4.7-7.2
	s8,10.1,10.7,8.8c1.6-0.8,10.2-23,7.8-23.7c1.1-2.3,3-5.6,3.8-7C121.2,119.5,120.9,123.8,122.7,126.4z"/>
<path class="st3" d="M135.5,92.5c-15,0.1-23.9-15.3-23.9-23.9c0-6.4,3.5-20.4,21.8-23.1c10.1-1.5,23.8-8.9,15.7-13.9
	c-12.7-7.8,1.1-17.5,8.8-9.6c-7.8-3.5-14.3,3-4.9,4.7c6.8,1.2,10.1,4.4,10,11.7c0,5-3.9,6.8-4.2,29.8
	C158.5,80.3,145.7,92.5,135.5,92.5z"/>
<ellipse transform="matrix(6.947466e-02 -0.9976 0.9976 6.947466e-02 51.1799 183.2368)" class="st5" cx="123.8" cy="64.2" rx="5.5" ry="5.5"/>
<path class="st12" d="M122.4,58.8c0,0-4.4,1.1-6.3-0.9"/>
<path class="st12" d="M119.5,60.7c0,0-1.9,0.8-3.2-0.2"/>
<ellipse transform="matrix(1 -6.189258e-03 6.189258e-03 1 -0.3987 0.7607)" class="st13" cx="122.7" cy="64.8" rx="3.1" ry="3.1"/>
<ellipse transform="matrix(1 -6.189258e-03 6.189258e-03 1 -0.3995 0.8713)" class="st5" cx="140.6" cy="65" rx="5.5" ry="5.5"/>
<path class="st12" d="M142.3,59.7c0,0,4.3,1.4,6.3-0.5"/>
<path class="st12" d="M145.1,61.8c0,0,1.8,0.9,3.2,0"/>
<ellipse transform="matrix(1 -6.189258e-03 6.189258e-03 1 -0.4027 0.8634)" class="st13" cx="139.3" cy="65.5" rx="3.1" ry="3.1"/>
<g>
	<path class="st14" d="M137.8,77.6c3.6-1.8,4.4,1.9,3.7,3.1c-1.8,3.4-7.4,4.1-9.8,4.2c-4,0.2-8.1-1.4-9.5-3.5
		c-1.3-1.9-0.1-3.8,1.1-4c2.5-0.3,4.2,1.6,7.7,1.5C133.6,78.8,136.6,78.2,137.8,77.6z"/>
	<path class="st15" d="M126.2,83.5c0,0,4.8-2.9,11.9-0.4C131.1,85.5,127.7,83.9,126.2,83.5z"/>
</g>
<path class="st12" d="M131.8,75.7c-1.7,0-2.9-1.3-2.9-3c0-2.3,2.9-2.4,2.9-5.6"/>
<path class="st3" d="M148.7,70.8c1.1,4.6,6,6.1,10.5,3.3c6.7-4.2,5.1-12,15.1-18.3c0,0-16.8-0.2-23.6,7"/>
<polyline class="st16" points="125.7,78.1 127.2,82 128.4,79.1 "/>
<circle class="st16" cx="124.8" cy="62.7" r="1.5"/>
<circle class="st16" cx="141.4" cy="63.3" r="1.5"/>
<path class="st17" d="M161.7,65.3c0,0-7.3,3.5-6.8,7"/>
<path class="st17" d="M157.8,71.7c0,0-0.6-1.4-1.7-1.5"/>
<path class="st4" d="M134.5,92c0,0,8.2-0.2,11.9-6.9c2-3.7,5.4-9.2,8.7-6.5C154.3,80.6,145.4,92.5,134.5,92z"/>
<circle class="st5" cx="179.5" cy="254.3" r="1"/>
<circle class="st5" cx="115.2" cy="262.3" r="1"/>
<path class="st1" d="M162.1,76.5c-2.4,0,0,0-3.8,0c-3.8,0-6.9-3.5-6.9-7.8s3.1-7.8,6.9-7.8c0.5,0,0.9,0,1.2,0c1.3,0,1.1,0,2.6,0
	C162.6,61.9,162.1,75.3,162.1,76.5z"/>
<path class="st1" d="M162.3,62c0,0-7.3-21.5-20.1-21.5c-3.9,0-6.9,0-6.9,0s15.9,5.3,19.7,23.3C158.3,61.1,162.3,62,162.3,62z"/>
<g>
	<polyline class="st18" points="126.5,151.7 80,101.2 76.3,100.3 67.7,88.4 72.5,83.8 84,92.7 84.8,96.1 133.1,145.3 	"/>
	<path class="st2" d="M145.1,195.5c-7.5-7.8-26.6-45.4-19.7-52.1c6.9-6.6,51.5,20.9,51.3,26.1c-0.2,4.2-20.9-0.6-24,2.4
		C145.7,178.5,152.6,203.4,145.1,195.5z"/>
	
		<rect x="141" y="164.5" transform="matrix(0.7215 -0.6925 0.6925 0.7215 -74.156 147.4494)" class="st19" width="10.5" height="2.7"/>
	<ellipse transform="matrix(0.7215 -0.6925 0.6925 0.7215 -70.641 139.6514)" cx="138.3" cy="157.6" rx="4.3" ry="4.3"/>
	<polyline class="st20" points="143.7,168.3 77.7,97 75.1,96.3 	"/>
	<polyline class="st20" points="145.3,166.8 74.6,91.5 71.5,90.6 	"/>
	<polyline class="st20" points="147,165.1 77,91.4 75.4,88 	"/>
	<polyline class="st20" points="148.8,163.4 81.7,94.5 80.5,92.1 	"/>
	<ellipse transform="matrix(0.7215 -0.6925 0.6925 0.7215 -42.1503 83.1697)" cx="82.3" cy="94" rx="0.8" ry="0.8"/>
	<ellipse transform="matrix(0.7215 -0.6925 0.6925 0.7215 -46.1463 80.7511)" cx="77.3" cy="97.7" rx="0.8" ry="0.8"/>
	<ellipse transform="matrix(0.7215 -0.6925 0.6925 0.7215 -43.1636 77.002)" cx="74.1" cy="92.2" rx="0.8" ry="0.8"/>
	<ellipse transform="matrix(0.7215 -0.6925 0.6925 0.7215 -41.3197 78.8975)" cx="77.4" cy="90.8" rx="0.8" ry="0.8"/>
</g>
<path class="st3" d="M92.5,127.5c-1.8-3.8-5.1-7.6-5.8-9.2c-2.5-5.6,3.5-3.2,6.9-2.7c3.4,0.5,4.7,5.9,3.1,10.9"/>
<path class="st3" d="M86.4,117.7c-4.7-7.7-0.9-12.9,1.1-15.1c-1.1,5.2-0.3,9.5,2.7,12.4"/>
<path class="st3" d="M88.4,116.5c0.4-5.7,3.4-8.2,5.1-8.8c1.8-0.6,5.4,1.5,4.9,3.5c-5-2-5.5,3.2-5.9,5.3"/>
<path class="st3" d="M92.1,117.4c1.1-3.2,4.2-6.9,7.6-6.1c2.3,0.5,4.3,4.8,3.1,6.6c-2.6-4.1-4.8-3.1-6.9,0.4"/>
<g>
	<path class="st3" d="M153,135.1c-4,4.8-5.4,8.1-9.8,11.7l2.3,3.7c2.8-1.8,6.1-4.4,9.4-8.4C154.9,142.1,154.7,136.5,153,135.1z"/>
	<path class="st3" d="M144,146.2c-4.1,1-8.8,1-10.6,1.5c-6,1.5-0.3,4.7,2.2,7.1c2.5,2.4,8.1-0.5,10.9-4.9"/>
	<path class="st3" d="M132.7,147.9c-8.9,1.1-10.7,7.4-11.1,10.3c3.4-4.1,7.2-6.1,11.4-5.6"/>
	<path class="st3" d="M132.4,150c-4.2,3.9-7.3,10.7-3.1,15.1c-0.1-5.2,2.5-8.8,5.4-11.4"/>
	<path class="st3" d="M137.1,154.5c-1.4,3.8-0.8,6.2,4,5.7c-0.6,2-5.2,3.1-7.1,1.6c-2.7-2.1-1.8-6.9,0.1-9.7"/>
</g>
<path class="st21" d="M151.4,152.4c0,0,20.1,11,21.4,14.8s-3.8,3-3.8,3s3.8-0.7,0.6-3.8C166.5,163.2,151.4,152.4,151.4,152.4z"/>
<path class="st4" d="M154.1,139.5c0,0-3.6,7-8.5,8.4c-1.9,3.4-3.4,5.6-8,5.1c0,0-1.7-0.1-1.9,2.6c-0.2,2.7-1.9,4.3-2.7,3.5
	c0.3,1.3,1.2,2.9,3.1,2.9c1.9,0,3.4-0.6,3.9-1.1c-1,0.1-5.3-0.4-3.3-6.1c1.2,0.8,1.8,0.7,4.4-0.5s5-4.7,5-4.7s7.2-5.5,8.2-7.6
	C154.3,140.5,154.1,139.5,154.1,139.5z"/>
<path class="st4" d="M129.6,73.6c0,0,2.4,1.1,5-0.3c-0.2,1-2.1,1.9-2.3,1.9S130.4,75.3,129.6,73.6z"/>
<path class="st4" d="M156.9,48.8c0,0,0.6-6,3.6-9.8c1.8-2.2,1.3-5.1,0-7.8c2.1,2.3,2.6,7.4,1.3,10.4c-1,2.3-2.4,8.9-2.6,10.6
	C158.3,50.5,156.9,48.8,156.9,48.8z"/>
<path class="st4" d="M155.4,20.8c0,0-2.3-1.1-5.2-0.5s-3.4,1.7-3.6,2.4c-0.1,0.8,1.9,2.7,1.9,2.7c-1-1.3-1.3-2.2,0-3.4
	C149.9,20.8,152.6,20.2,155.4,20.8z"/>
<path class="st22" d="M152.2,70.8c0,0,1.7,2.5,3,0c1.5-0.1,6.3,5.3,6.3,5.3l-3.9-0.2C157.6,75.9,154.1,75.9,152.2,70.8z"/>
<ellipse class="st23" cx="162.1" cy="68.7" rx="6.9" ry="7.8"/>
<ellipse class="st24" cx="162.2" cy="68.7" rx="5.2" ry="5.9"/>
<path class="st25" d="M160.8,66.1l0,4.8c-0.2-0.1-0.5-0.2-0.7-0.2c-0.6,0-1.1,0.4-1.1,0.8s0.5,0.8,1.1,0.8s1.1-0.4,1.1-0.8v-5l3.3-1
	l0,4.3c-0.2-0.1-0.4-0.2-0.7-0.2c-0.6,0-1.1,0.4-1.1,0.8s0.5,0.8,1.1,0.8s1.1-0.4,1.1-0.8V65L160.8,66.1z"/>
<path class="st26" d="M96.9,271.4c0,0,0.6,1.4,4.1,1.6s14.6-2.1,16.9-3.3c3.1-1.6,6.7-4,6.6-6.4c0.2,2.8,0.6,6.9,0.6,6.9l-10.5,2.2
	c0,0-7.9,2.1-13.5,1.5C96.9,273.5,96.9,271.4,96.9,271.4z"/>
<path class="st27" d="M171.7,268.1c0,0,5.3-0.6,7.8-3.4c3-3.3,3.7-12.5,3.7-12.5s1.8-0.7,3.4-2.7c0.1,1.7,0.7,10.5,0.7,10.5
	l-8.7,6.5C178.6,266.6,175.4,268.9,171.7,268.1z"/>
<path class="st11" d="M181,206.9c-0.9-1.3-2-2.4-2.7-3.8c-2.9-5.1-1.6-11.7-3.7-17.2c-0.8-2-2-3.8-2.9-5.8s-1.5-4.2-1.1-6.3
	c0.5,2.8,3.2,4.7,5.2,6.7c3,3,5,6.9,5.7,11.1c0.2,1.5,0.3,3,0.6,4.4c1.8,9.5,11.2,16.2,13.2,25.7c0.6,2.9,0.5,6.1,2,8.7
	c-1.9,0-7.4-4.9-10.1-9.9c-1-2-1.3-4.3-2.2-6.3C184.1,211.7,182.7,209.2,181,206.9z"/>
<path class="st11" d="M194.7,209.4c-0.8-2-0.5-4.3-1-6.4c-0.7-2.8-2.9-5.1-5.2-6.9c1.3,0.3,2.4,1.2,3.4,2.1c1.5,1.3,2.9,2.7,3.9,4.4
	c1.2,2.1,1.5,4.7,2.7,6.8c0.6,1,1.4,1.8,2.1,2.7c2.2,2.4,3.2,5.3,9,8.2c1.3,0.7,5.2,4.3,6.7,4.4c-4.2-0.3-8.5-1.5-12.2-3.7
	c-1.5-0.9-1.7-1.7-2.5-3.2c-0.8-1.5-2.2-2.7-3.4-3.8C196.8,212.6,195.4,211.2,194.7,209.4z"/>
<path class="st11" d="M106.9,211.2c1.3-4,3.9-7.7,3.9-12c0-3.3-1.5-6.3-2.6-9.4c-1.1-3.1-1.9-6.6-0.3-9.5c-2.8,2.7-4.2,6.9-3.6,10.7
	c0.4,2.6,1.6,5.1,1.3,7.7c-0.5,3.8-4.1,6.9-4.1,10.7c0,3.1,2.4,6,1.7,9c-0.6,2.8-1.1,3.6,0.4,6.1c1.5,2.7,3.1,4.4,6.4,5.8
	c-1.9-3-4-10-4.1-12.1C105.8,215.9,106.1,213.5,106.9,211.2z"/>
<path class="st11" d="M175.3,214.2c-0.8-3.5,1-7.2,0.2-10.7c-0.8-3.3-3.8-5.6-6.9-7.1c0.7,0.5,0.9,1.4,1.1,2.2c1,4.4,2,8.9,1.1,13.3
	c-0.3,1.2-0.7,2.4-0.8,3.6c-0.1,1.4,0.2,2.7,0.6,4.1c1.1,3.8,2.6,7.6,4.4,11.1c0.4-1.7,0.7-3.4,1.5-4.9c0.4-0.9,1.1-1.8,1.4-2.8
	C178.6,219.7,176,217,175.3,214.2z"/>
<path class="st11" d="M172.7,160.1c-2.1-3.6-0.7-8.1-1.2-12.2c-0.3-3-1.7-5.7-3.4-8.2c-1.3-1.9-3-3.7-3.3-6c-0.2-1.3,0-2.6-0.1-3.8
	c-0.3-2.5-1.9-4.6-3.4-6.6c4.8,2.4,8.5,7,9.8,12.2c0.4,1.5,0.6,3,1.2,4.4c0.7,1.7,2,3.2,2.8,4.9c0.8,1.6,1.1,3.5,1,5.3
	c-0.1,0.9-0.2,1.7,0,2.5c0.2,0.7,0.6,1.3,1.1,1.9c2.2,3.1,4,6.7,4.3,10.6c0.4,4-0.6,8.4,1.6,11.7c-1.7-0.1-3.2-1.1-4.1-2.5
	c-0.8-1.2-1-2.8-0.6-4.2c0.3-1.2,1.2-2.4,0.7-3.7C178,163.7,174.1,162.6,172.7,160.1z"/>
<path class="st11" d="M96.4,209.2c0.2-3.5,2.2-6.8,2.4-10.3c0.2-4.2-2.2-8.2-2.4-12.4c-1.9,13.5-3.6,27.2-3.9,40.8
	c1-2.4,1.9-5,2.8-7.5C96.8,216.2,96.2,213,96.4,209.2z"/>
</svg>
