<?xml version="1.0" encoding="utf-8"?>
<!-- Generator: Adobe Illustrator 20.1.0, SVG Export Plug-In . SVG Version: 6.00 Build 0)  -->
<svg version="1.1" id="Layer_1" xmlns="http://www.w3.org/2000/svg" xmlns:xlink="http://www.w3.org/1999/xlink" x="0px" y="0px"
	 viewBox="0 0 288 288" style="enable-background:new 0 0 288 288;" xml:space="preserve">
<style type="text/css">
	.st0{fill:#329437;stroke:#000000;stroke-width:3;stroke-linecap:round;stroke-miterlimit:10;}
	.st1{fill:#329437;}
	.st2{fill:#FFFFFF;stroke:#000000;stroke-width:3;stroke-linecap:round;stroke-miterlimit:10;}
	.st3{stroke:#000000;stroke-miterlimit:10;}
	.st4{fill:#357C32;}
	.st5{fill:#3EA639;}
	.st6{fill:#911913;stroke:#000000;stroke-width:3;stroke-linecap:round;stroke-miterlimit:10;}
	.st7{fill:#FFFFFF;}
</style>
<path class="st0" d="M90.2,118.2c0,0-10.3,0.3-19.7,6.1c-7.3,4.6-13.1,15.1-19.3,14.6c-11-0.9-11.5-27.5-6.3-39
	C53,82,32,92,27.8,102.3c-6.5,16-1.6,44.9,13.1,50.8c14.7,5.9,25-3.8,29.1-8.6c5.6-6.4,9.3-8.6,16.7-9.2"/>
<g>
	<path class="st0" d="M18.8,103.3c0,0,8,5,17,1.9"/>
	<path class="st1" d="M43.2,100.3l1.8-5.5l-8.4-13.5L16.1,87l8.8,16.2C24.9,103.3,36.4,102.4,43.2,100.3z"/>
	<path class="st0" d="M21.5,104.4c3.4,0.3,8.1-1.2,8.5-4.4c0.3-2.5-2.6-4.9-7.8-5.9s-8.6,1.2-8.8,4.6
		C13.2,102.1,15.3,103.8,21.5,104.4z"/>
	<path class="st0" d="M21.3,86.1c3.1,1.3,8.1,1.2,9.4-1.8c1-2.3,8.9-1.6,4.2-4.1S7.4,65.1,3.5,71.7C0.4,79.1,15.5,83.7,21.3,86.1z"
		/>
	<path class="st0" d="M20.4,95.5c3.3,0.9,8.1,0.2,9.1-3c0.7-2.4-1.7-5.3-6.7-7.1c-5-1.8-8.6-0.3-9.4,3.1S14.4,93.9,20.4,95.5z"/>
	<path class="st0" d="M45.4,98.9c0,0,4.7-11.1-2-16.2c-6.2-4.7-13.9-4.4-15.4-0.3c-0.9,2.6-4.9,7.1-2.9,10c2.4,3.3,9.1,0.7,9.6-5.9"
		/>
</g>
<path class="st0" d="M271.7,261.5c-30.3-0.3-60.5-2-90.8-2.7c-22.2-0.5-92,2.7-112.2-6.5c-6.1-2.8-4.3-6.4-7.7-13.1
	c-4.9-9.4,3.6-13.7-1.2-30c-4.6-15.6,10.3-16.4,8.3-31c-1.6-12.2,6.5-12,3.5-20.9c-4.4-13.3,1.1-16.4,0.1-23.8
	c-1.1-8.1-5.5-11.3-2.8-20.1c2.3-7.5-3-16.5-0.7-20.5c3.8-6.5,0.4-12.7,4.4-16.6c5.9-5.6,0.2-14.3,12.3-16.7
	c11.1-2.2,10.4-12.7,14.1-13c3.8-0.3,16.7,5,22.6,4.8c3.7-0.1,2.7-7.8,6.1-7.7c3.2,0,1.4,10.8,19.1,13.8c7.9,1.3,5.8-11.9,10.9-9.5
	c2.6,1.2-1.4,9,9.5,11.1c5.7,1.1,9.9,12,14.9,14.7c9.3,5,4.9,17.3,10.7,25.8c6,8.8-0.4,10-1.9,22.6c-1.2,9.2,6.2,17.1-2,28.4
	c-6,8.3,0,15.1-7.8,23.1c-4.8,4.9-2,10.4-6.9,15.8c-4.1,4.5-2.2,10.6-4,12.1c6.1-0.4,7.4,7.6,2.2,9.9c1.5,0.2,4.3-1.3,9.3,3.9
	c3.8,4,2.7,10.6,12.7,11c8.2,0.3,9.5,7.7,19.8,6.7c11.4-1.1,14,8.2,27.8,6.9c10.5-1,12.5,7.4,22.1,6.8
	C280.4,245.8,290.7,261.7,271.7,261.5z"/>
<ellipse transform="matrix(0.9738 -0.2275 0.2275 0.9738 -7.9499 33.6896)" class="st2" cx="142.2" cy="51.3" rx="13.3" ry="13.3"/>
<ellipse transform="matrix(0.9738 -0.2275 0.2275 0.9738 -8.7158 27.05)" class="st2" cx="113" cy="51.3" rx="13.3" ry="13.3"/>
<ellipse transform="matrix(0.1719 -0.9851 0.9851 0.1719 60.6097 177.2576)" class="st3" cx="135.7" cy="52.6" rx="2.5" ry="2.5"/>
<ellipse transform="matrix(0.1719 -0.9851 0.9851 0.1719 36.5618 148.2303)" class="st3" cx="106.4" cy="52.4" rx="2.5" ry="2.5"/>
<path class="st0" d="M135.9,31.8c-1.7-2.8,0.5-5.9,3.3-6.1c10.5-0.8,18.5,8.9,20.8,12.4c3.8,5.8-0.4,10.2-4.9,6.3
	c-3.6-3.1-4.7-6.4-10.7-8.6C138.4,33.6,137.4,34.2,135.9,31.8z"/>
<path class="st0" d="M119,28.9C119,28.9,119,28.9,119,28.9c-0.5,3.6-4,4-6.3,4.5c-5.3,1.1-9.1,5.3-12.7,9.3c-3.6,3.9-9,0.5-3.8-6.9
	c2.6-3.7,6.5-6.8,10.4-8.8C109.1,25.6,118.3,21.5,119,28.9z"/>
<path class="st4" d="M272.9,256.2c-2.4,0.3-4.7-0.5-6.9-1.4c-2.4-1-5.2-2.3-7.3-0.9c-0.9,0.6-1.5,1.5-2.3,2.2
	c-2.6,1.9-6.3-0.2-8.6-2.4c-2.3-2.2-5-5-8.2-4.4c-4.2,0.8-6.8,7.2-10.9,5.8c-2-0.7-2.9-3-4.5-4.4c-2.8-2.5-7.1-1.9-10.6-0.6
	c-3.5,1.4-6.9,3.4-10.7,3.1c-4.3-0.2-7.7-3.3-11.4-5.4s-9-3.1-11.8,0.2c-1.8,2-2.1,5.3-4.6,6.4c-2.7,1.3-5.6-1.1-7.7-3.2
	c-2.1-2.1-5.3-4.2-7.8-2.6c-0.8,0.6-1.3,1.5-2.1,2.1c-1.7,1.6-4.6,1.7-6.4,0.3c-1.5-1.2-2.4-3.3-4.3-3.7c-1.8-0.4-3.4,1-4.8,2.1
	c-3.1,2.4-7.1-4-9.5-1c-3.8,4.8-9.3,4-11.4,0.8c-1.6-2.4-3.4-6.2-6.1-5.1c-2,0.8-2.1,3.9-3.9,5.2c-2.2,1.6-5.3-0.5-6.2-3
	c-0.9-2.5-0.7-5.3-1.6-7.8c-0.9-2.5-3.8-4.8-6.1-3.4c-1.3,0.8-1.8,2.3-2.7,3.5c-3,3.9-9.3,2.8-13.1-0.3c-1.9-1.6-4.5-3.7-6.6-2.3
	c-1.7,1.1-1.8,4-3.7,4.8c-1.9,0.8-3.7-1.1-5-2.6c-1.3-1.5-2.7-1.5-4.1-0.1c1.9,3.2,1.3,7.5,4.3,10.9c1.8,2,4.5,2.8,7.1,3.4
	c21.1,5.4,43.2,5.1,65,5c45,0,89.6,1.7,134.6,3c2.5,0.1,5.2,0,6.9-1.9c1.3-1.4,0.5-3.8-1.2-5.6C277.5,251.7,275,255.9,272.9,256.2z"
	/>
<path class="st4" d="M160.4,207.4c-0.5,0.7-1.1,1.3-1.8,1.3c-0.6,0-1.2-0.3-1.6-0.7c-0.8-0.7-1.3-1.7-2-2.5c-1.7-1.9-3.9-1.6-4.4,1
	c-0.2,1-0.2,2.1-0.8,3c-0.5,0.6-1.3,1-2.1,1.1c-1.5,0.1-3-0.7-3.9-1.9c-1.1-1.4-1.6-3.3-2.1-5c-0.6-2-1.4-4-3.1-5.3
	c-1.8-1.4-4.8-1.4-6,0.5c-0.5,0.9-0.6,2.1-1.5,2.6c-0.9,0.5-2.1,0-2.9-0.8c-0.7-0.8-1.3-1.8-2.2-2.3c-2-1.2-4.5,0.2-6.1,1.9
	c0.7-1.2,1.6-2.4,2.5-3.5c0.9-1.1,2.3-2.3,3.8-2.5c1.7-0.2,3,2.2,4,0.7c1.6-2.4,2.2-5.2,5.2-6.2c0.8-0.3,1.8-0.3,2.6,0
	c1.6,0.6,1.7,2.3,2.6,3.5c0.4,0.7,1.2,1.2,2,1.1c2.4-0.4,2.1-4.6,4.6-5.5c1.3-0.5,2.9-0.2,4,0.7c1.7,1.5,1.6,5.2,4,5.9
	c1.8,0.5,4.5-11.6,9.8-11.6c1.4,0,2.6,3.3,5.3,3.3c2.6,0,6.1-9.1,6.1-8.4c0,3.5-1,6.9-2.8,9.8c-1.1,1.7-2.5,3.3-3.2,5.2
	c-0.5,1.6-0.7,5.2-1,6.8c-0.5,2.7-1.6,2.2-3.8,3.3c-1.5,0.8-3,1.2-4.1,2.5C161.2,206.2,160.8,206.8,160.4,207.4z"/>
<path class="st4" d="M78.4,171c1.7-2,4.4-6,6.4-5.4c2.8,0.8,4.8,3.1,4,10.6c0.5,1.5,1,3.1,2.3,4.2c1.3,1.2,3.6,1.9,5.4,1.1
	c1.5-0.6,2.4-2.1,4.1-2.3c2.1-0.2,3.4,1.6,4.1,3.1c0.7,1.5,2.2,3.3,4.2,3c0.8-0.1,1.4-0.6,2.2-0.7c2.3-0.5,6.1,1.1,6,6.1
	c-3.1-4.4-6.3-4.4-7.6-3.1c-2.4,2.4-2.8,4.6-5.9,5.9c-0.8,0.4-1.9,0.4-2.8,0.1c-3.1-1.3-1.4-5-4.1-6.7c-3.8-2.2-7,4.7-10.2,0.4
	c-0.7-0.9-0.8-2.1-1-3.1c-0.3-2.6-2.1-5-6.1-4.3c-2.8,0.5-5,2.4-5.2,4.5c-0.5,5.9-6.2,4.4-7.1,5.4c-0.4,0.5,1.3-2,2.2-5.6
	c1.3-5.3-1.2-9.6,1.2-15.1C70.9,169.5,74.8,175.3,78.4,171z"/>
<path class="st4" d="M190.6,115.5c-1.6-2.8,1.2-4.8-2.5-5.3s-7.7,0.7-10.2,3c-2.3,2.2-3.9,5.5-7.5,5.6c-3.1,0.1-4.6-3.4-7-4.7
	c-4.7-2.5-7.5,7.5-16.2,6.7c11.6-10.2,12.2-21.1,15.9-19.7c3.3,1.2,4.2,6.8,6.5,7.1c3.9,0.6,4.4-4,4.9-7.2c0.3-1.7,0.2-5,2.2-5.7
	c2.2-0.8,2.5,3,5.3,3.2c1.8,0.2,5.3-3.2,6.3-6.2c0.3,2.3,1.2,4,2.4,6c0.6,1.1,1.9,3.4,2.8,5.8C194.8,107.1,192.7,111.7,190.6,115.5z
	"/>
<path class="st5" d="M62.7,215.5c1.9-1,2.9-2.3,4.6-3.5s4.3-1.8,6.2-0.9c0.7,1.8,1.5,3.7,3.2,5.1c1.6,1.4,4.4,2.1,6.4,1.1
	c2.2-1.1,2.9-4,5.5-4.5c2.3,2,2.3,5.1,3.4,7.8c0.7,1.8,2.8,6.2,7.3,4.2c2.2-1,1.4-3.3,3-5.1c1.2-1.3,3.9-1.5,5.4-0.5
	c1.8,1.2,1.4,3.8,3.3,5c1.6,1.1,4.1,0.5,5.7-0.5c1.6-1,3-2.4,4.8-3.2c1.9-0.7,4.6-0.4,5.2,1.3c1-2.3-1.7-4.8-4.7-5.1
	c-1.4-0.2-5.5,1.9-7.9,0.7c-2.6-1.3-2.6-4.3-4.9-7c-2.2-2.5-7.1-3-9.7-0.9c-0.8,0.6-1.6,1.6-2.7,1.4c-1.1-0.2-1.3-1.4-1.4-2.4
	c-0.4-4-5.7-9.5-9.8-6.6l-2.9,3.5c-1.4,1.7-4.1,1.2-4.9-0.9c-0.7-1.7-1.5-3.4-2.8-4.8c-2.5-2.8-8.3-6.3-11.2-3.3
	C57.8,202.2,61.4,208.2,62.7,215.5z"/>
<path class="st5" d="M204.2,243.3c-3.2-0.8-3.6-4.2-6.3-5.7c-1.5-0.9-5,2.7-8,3.2c-3.4,0.6-7.4-3.5-7.8-3.9c-1-1.1-3.2-1.1-4.7-0.6
	s-2.7,1.5-4,2.2c-3.6,1.8-8.9,1.6-12.5-0.5c5.3,1,11.1-0.9,13.4-4.4c0.9-1.3,1.6-3,3.7-3.2c3-0.3,4.9,3.1,7.9,3.1
	c1.6,0,2.8-0.9,4.2-1.5c2.6-1.1,6.3-1,8.6,0.5c3,2,4.4,7.5,7.1,6.4c2.8-1.1,9.4-0.3,11.1,3.7C209.5,238.6,206.3,243.8,204.2,243.3z"
	/>
<path class="st5" d="M72.1,142.4c5-1.2,4.2,6.6,7.8,7.7c0.5,0.2,1.8-0.4,2.2-1.5c0.7-2.4,3.4-5.3,5.6-3.3c1.3,1.2,1.6,6.7,1.7,7.4
	c0.2,2,0.9,4.2,2.6,4.8c1.7,0.6,3.5-0.9,4.4-2.6c0.9-1.8,1.4-3.8,2.4-5.5c1.1-1.7,4-2.7,5.5,1.7c0.5,1.4,3.9,1.1,4.2-6.1
	c-1.1,2.8-5.6,3.3-5.9-0.4c0-0.5,0-1.1-0.2-1.6c-0.7-2-4.2,0.4-5,1.2c-1.4,1.3-4.4,3.8-5.4-2.2c-0.3-1.8-1.3-3.4-2.6-4.5
	c-1.1-0.9-4.5-1.8-6.8,0.8c-1.6,1.8-4.3-1.5-4.8-2.3c-1.2-1.7-2.9-3.7-4.7-3C73.5,136.6,72.5,140,72.1,142.4z"/>
<path class="st6" d="M105.6,70c4.3,2.5,8.9,5.6,14.8,7.2s12.9,1.9,18.3,0.2c4-1.2,6.8-3.4,9.4-5.5c0,0,4.5-3.6,8.6,0.5
	c4.1,4.1,0.1,9.2-2.1,10.7c-2.2,1.5-10.2,7.8-27.2,6.9s-26.3-7.6-28.4-9.5C91.9,73.8,96.5,64.7,105.6,70z"/>
<polyline class="st7" points="148.2,85.1 142.2,80.2 140.2,87.7 "/>
<path class="st0" d="M181.6,129.1c0,0,10.3,1.1,20.3-3.5c7.9-3.6,14.9-13.2,21-12c10.8,2.3,9.8,24.2,3.1,34.9
	c-10.3,16.6,9.9,14,15.4,4.4c8.5-15,7.4-44.3-6.4-52.1c-13.8-7.8-25.2,0.5-30,4.7c-6.4,5.6-10.4,7.3-17.7,6.9"/>
<g>
	<path class="st0" d="M237.3,176.6c0,0,12.7-17.6,4.9-25"/>
	<path class="st1" d="M240.7,151.5l-8.4-2.5l-14.9,7.5l3.3,20.9l15-1.5C235.8,176,248.3,157.5,240.7,151.5z"/>
	<path class="st0" d="M238.7,174c0.7-3.3-0.3-8.1-3.5-8.9c-2.4-0.6-5.2,2-6.7,7.1c-1.6,5.1,0.2,8.6,3.6,9.3
		C235.4,182,237.4,180.1,238.7,174z"/>
	<path class="st0" d="M229.8,174.1c1.2-3.1,1.1-8.1-1.9-9.4c-2.3-1-5.4,1.1-7.8,5.9c-2.4,4.7-1.2,8.6,2,9.7S227.5,179.9,229.8,174.1
		z"/>
	<path class="st0" d="M220.5,172.3c1.6-3,2.1-7.9-0.7-9.6c-2.1-1.3-5.5,0.4-8.5,4.8c-3,4.4-2.3,8.3,0.7,9.9
		C215,179,217.5,177.7,220.5,172.3z"/>
	<path class="st0" d="M233.4,148.7c0,0-7.1-3.4-13.6,2.3c-5.9,5.1-5.9,13-1.8,14.5c2.2,0.8,6.1,5.3,9.1,3.6c3.6-2,1.7-9-4.8-10.2"/>
</g>
<path class="st4" d="M100.9,119.8c1.6-1.1,2.3-3.1,3.4-4.8c1.1-1.7,3-3.2,4.9-2.4c1.6,0.7,2.1,2.6,2.6,4.3c0.5,1.7,1.4,3.6,3.1,3.7
	c2.6,0.1,3.9-4,6.5-3.8c1.2,0.1,2.1,1.1,2.6,2.2c0.4,1.1,0.4,2.3,0.6,3.5c0.4,2.6,1.5,5.2,3.2,7.3c1.7,2.1,4.5,3.7,6.9,2.5
	c1.8-0.9,2.6-3.1,4.1-4.6c1.9-2,5.2-2.4,7.6-1.1c1.4,0.8,2.4,2,3.7,3s3,1.6,4.4,0.9c-1.7,1.3-4.1,1.5-6.1,0.6c-1-0.5-2-1.3-3.2-1.2
	c-1.2,0.2-2,1.3-2.7,2.3c-2.4,3.3-6.4,5.7-10.5,5.6c-4.1-0.1-8.2-3.2-8.6-7.3c-0.1-0.8-0.1-1.7-0.4-2.5c-0.3-0.8-1.1-1.5-1.9-1.3
	c-0.4,0.1-0.7,0.3-0.9,0.6c-1.1,1.3-1.2,3.1-1.5,4.8c-0.3,1.7-1.1,3.5-2.8,3.8c-1.6,0.3-3.1-1.1-3.7-2.7s-0.6-3.3-1-4.9
	c-0.4-1.6-1.6-3.2-3.2-3.4c-2-0.2-3.5,1.7-4.3,3.5s-1.4,3.9-3.1,4.9c-2.7,1.7-6.3-0.5-7.7-3.4c-1.4-2.9-1.3-6.2-2.1-9.2
	c-0.4-1.4-1.5-3-2.8-2.5c-1.5,0.5-1.3,3.1-2.8,3.5c-1,0.3-2-0.8-2.1-1.8c-0.1-1.1,0.4-2.1,0.8-3.1c2.8-7.1-0.7-11.7-3.6-17.7
	c3.2,1.8,5.9,5.7,8,8.6C90.9,111.3,94.7,124.1,100.9,119.8z"/>
</svg>
