<?xml version="1.0" encoding="utf-8"?>
<!-- Generator: Adobe Illustrator 19.0.0, SVG Export Plug-In . SVG Version: 6.00 Build 0)  -->
<svg version="1.1" id="logo_1_" xmlns="http://www.w3.org/2000/svg" xmlns:xlink="http://www.w3.org/1999/xlink" x="0px" y="0px"
	 viewBox="0 0 2700 600" style="enable-background:new 0 0 2700 600;" xml:space="preserve">
<style type="text/css">
	.st0{fill:#454545;}
	.st1{fill:#0F76B2;}
</style>
<g id="icon_1_">
	<g id="_x30_2">
		<g>
			<path class="st0" d="M444,224c-17.8,0-33.9,9.2-45.2,23.8l-17.5-0.2v-120h-4c0,0-43.5,0.1-48,0c-8.4-0.1-14.9-19.7-22.4-24.5
				c-28-18.3-112.8,8.2-124.1,17c-11.4,8.8-7.7,24.4-7.7,24.4s-25.1,9.4-44.3,49.4c-40,83.7-73.4,186.9-64.8,249.9
				c12.7,93.1,101.1,89.5,112.4,82c31.4-21.1,4.2-0.7,40.2-30.5c20.9-17.3,31.3-24.2,40.5-27.7c9.2-3.5,23.8-12.8,66.2-12
				c28.7,0.5,56,0,56,0v-104l18,0.2c11.3,14.3,27.1,23.2,44.7,23.2c34.2,0,62-33.8,62-75.5C506,257.8,478.2,224,444,224z"/>
		</g>
	</g>
	<g id="_x30_1">
		<g>
			<path class="st1" d="M639.3,192.6c-19.1-40-44.2-49.4-44.2-49.4s3.7-15.6-7.6-24.4c-11.4-8.8-94.2-34.7-124-17
				c-7.6,4.5-13.7,25.7-22.1,25.8c-4.5,0.1-48,0-48,0V236c13.2-15.8,31.2-25.5,51.2-25.5c40.3,0,73,39.8,73,89c0,49.2-32.7,89-73,89
				c-19.9,0-38-9.7-51.2-25.5v92.6c0,0,23.3,0.5,52,0c42.4-0.7,56.7,7,65.9,10.5c9.2,3.5,19.6,10.3,40.4,27.6
				c36,29.8,9.8,10.4,41.2,31.5c11.2,7.5,98.5,10.1,111.2-82.9C712.6,379.3,679.2,276.2,639.3,192.6z"/>
		</g>
	</g>
</g>
<g id="Game">
	<g>
		<path class="st1" d="M1904.5,225h40v24.7c-8.2,5.5-18.7,8.4-32.7,8.4c-32.4,0-55.5-23.6-55.5-56.7v-0.6
			c0-31.1,22.8-55.5,52.3-55.5c20.4,0,34.8,7,49.4,19.2l33.3-40.1c-21.6-18.6-47-29.4-83-29.4c-63.1,0-109.8,46.5-109.8,105.9v0.6
			c0,61.7,47.3,105.3,111,105.3c37.4,0,67.2-13.7,88.8-31.7v-91.3h-93.8V225z M2085.9,97.6l-86.8,205h59.3L2073,266h79.2l14.6,36.6
			h60.8l-87-205H2085.9z M2089.7,222.1l23.1-57.6l22.8,57.6H2089.7z M2341.5,177.9l-48.8-78.8h-59.9v203.6h55.5V186.1l52,79.4h1.2
			l52.3-79.7v116.9h56.4V99.1h-59.9L2341.5,177.9z M2527.9,254.7v-32.3h98.1v-44.5h-98.1v-31.1h108.4V99.1h-164.5v203.6h165.9v-48
			H2527.9z"/>
	</g>
</g>
<g id="Builder">
	<g>
		<path class="st1" d="M1789.8,452.1c13.4-5.8,23.3-16.1,23.3-33.5v-0.4c0-10.3-3.7-18.3-9.7-24.5c-8.8-8.6-22.2-13.3-41.2-13.3
			h-77.4v150.3h77.9c36,0,57.2-15.7,57.2-41.4v-0.4C1819.8,468.4,1808.2,458.1,1789.8,452.1z M1725.5,413.9h27.4
			c12.3,0,19,4.5,19,12.9v0.4c0,8.8-7.3,13.1-20.1,13.1h-26.3V413.9z M1778,483.5c0,8.8-7.1,13.7-20.1,13.7h-32.4v-27.7h31.9
			c14,0,20.5,5.4,20.5,13.5V483.5z M1933.3,465c0,21-11,30.9-28,30.9c-16.8,0-27.8-10.3-27.8-32v-83.5h-42.3v84.4
			c0,47,27,68.7,69.7,68.7c42.9,0,70.8-21.5,70.8-69.8v-83.3h-42.3V465z M1999.3,530.7h41.8V380.4h-41.8V530.7z M2108.5,380.4h-41.8
			v150.3h115v-36.5h-73.1V380.4z M2256,380.4h-58.5v150.3h57.6c54.1,0,85.9-32.2,85.9-75.6v-0.4C2341,411.3,2309.7,380.4,2256,380.4
			z M2298.3,455.8c0,24.3-16.6,38-41.8,38h-17v-76.7h17c25.2,0,41.8,14.2,41.8,38.2V455.8z M2402.1,471.4h72.5v-32.9h-72.5v-23h80
			v-35.2h-121.5v150.3h122.5v-35.4h-81.1V471.4z M2605.5,478.3c18.8-7.9,31.1-23.2,31.1-46.4v-0.4c0-14.8-4.5-26.2-13.4-35
			c-10.1-10.1-26.1-16.1-49.2-16.1h-71.4v150.3h41.8v-45.5h18.6l30.4,45.5h48.1L2605.5,478.3z M2594.7,434.7
			c0,11-8.4,17.8-22.4,17.8h-27.8v-36.3h27.6c13.8,0,22.7,6,22.7,18V434.7z"/>
	</g>
</g>
<g id="My">
	<g>
		<path class="st0" d="M1063.2,264.1L959.4,95.8H832.1v434.9h118V281.5l110.6,169.6h2.5l111.2-170.2v249.7h119.9V95.8h-127.4
			L1063.2,264.1z M1642.2,95.8l-90.1,158.4l-89.5-158.4h-137.3l165.9,272.1v162.8h120.5V366L1777,95.8H1642.2z"/>
	</g>
</g>
</svg>
