<?xml version="1.0" encoding="utf-8"?>
<!-- Generator: Adobe Illustrator 20.1.0, SVG Export Plug-In . SVG Version: 6.00 Build 0)  -->
<svg version="1.1" id="Layer_1" xmlns="http://www.w3.org/2000/svg" xmlns:xlink="http://www.w3.org/1999/xlink" x="0px" y="0px"
	 viewBox="0 0 288 288" style="enable-background:new 0 0 288 288;" xml:space="preserve">
<style type="text/css">
	.st0{fill:#2B2B2B;stroke:#000000;stroke-width:2;stroke-linecap:round;stroke-miterlimit:10;}
	.st1{fill:#555452;stroke:#000000;stroke-width:2;stroke-linecap:round;stroke-miterlimit:10;}
	.st2{fill:#EBEEB8;stroke:#000000;stroke-width:2;stroke-miterlimit:10;}
	.st3{fill:#424242;}
	.st4{fill:#F59B26;stroke:#A53D17;stroke-width:2;stroke-miterlimit:10;}
	.st5{fill:#CC7A1D;}
	.st6{fill:#D1A674;}
	.st7{fill:#FFFFFF;}
	.st8{fill:#EDEDED;}
	.st9{fill:#FBBB20;stroke:#A53D17;stroke-width:2;stroke-miterlimit:10;}
	.st10{fill:#F59B26;}
	.st11{fill:#010202;stroke:#000000;stroke-miterlimit:10;}
	.st12{fill:#AB6CAB;stroke:#54306D;stroke-width:2;stroke-linejoin:round;stroke-miterlimit:10;}
	.st13{fill:#AB6CAB;stroke:#000000;stroke-width:2;stroke-linejoin:round;stroke-miterlimit:10;}
	.st14{fill:#9F559D;}
	.st15{fill:none;stroke:#74CAEB;stroke-linecap:round;stroke-miterlimit:10;}
	.st16{fill:none;stroke:#F4E953;stroke-linecap:round;stroke-miterlimit:10;}
	.st17{fill:#F59B26;stroke:#000000;stroke-width:2;stroke-linejoin:round;stroke-miterlimit:10;}
	.st18{fill:none;stroke:#000000;stroke-linejoin:round;stroke-miterlimit:10;}
	.st19{fill:none;stroke:#000000;stroke-linecap:round;stroke-linejoin:round;stroke-miterlimit:10;}
	.st20{fill:#DB863B;}
	.st21{fill:none;stroke:#F29FC4;stroke-linecap:round;stroke-miterlimit:10;}
</style>
<path class="st0" d="M197.2,24.4c0,0,0.6-3.6-1-5.4c-1.3-1.4,0.5-3,2.2-1.7c1.7,1.3,3.3,4.3,2.5,6.9"/>
<path class="st1" d="M195.4,135c-11.7,6.6-26.1,7.1-39.1,3.6c-11.8-3.2-22.7-9.7-31.2-18.4c-2.4-2.5-4.7-5.2-5.6-8.5
	c-0.9-3.3-0.2-7.3,2.6-9.3c3-2.3,7.4-1.6,10.6,0.5s5.4,5.2,7.9,8c9.8,11.2,29.1,20.8,45.1,10.6"/>
<polygon class="st2" points="134.3,164.7 55.9,164.7 43.5,69.1 122,69.1 "/>
<path class="st3" d="M183.9,123.3c0,0-6.1,10.1-18.6,11.3s-13.1,0.8-19.7-0.8c4.8,2.5,20,9.1,37.5,5
	C183.5,132.5,183.9,123.3,183.9,123.3z"/>
<path class="st4" d="M190.1,217.2c0.1,3.8,0.2,7.6,0.3,11.4c0.1,6.2,1,14.3-5,18.3c-6.4,4.3-19.6-1.5-22.6,7.9
	c-0.4,1.3-0.4,2.7,0.2,3.9c0.5,1,1.4,1.8,2.4,2.4c3.2,1.9,7.1,2.1,10.8,2.1c3.6,0,7.1,0.2,10.7-0.4c5.7-0.9,10.9-3.7,14.3-8.4
	c2.7-3.8,4-8.4,4.6-13c1-7.8,0.7-17.6,0.3-26.6"/>
<path class="st5" d="M163.3,256.6c0,0,2.3,1.7,9.1,1.5c10.7-0.3,24.6,0.2,28.5-11.5c1.1-3.2,1.8-7.3,1.9-13.3
	c0.1-4.3,0-9.6-0.2-12.9c-1.5,1.8-2.5,2.7-4.4,4.7c-1-1.4-2.3-3.4-3.5-5.3c-1.4,1.1-2,1.5-3.6,2.9c-0.1-1.6-0.1-8.1-0.1-8.1
	l14.4,0.3c0,0,1.8,16.6-0.4,28.3c-1.1,5.9-3.3,11-6.7,13.6c-5.3,4.1-11.3,7.2-27.9,5.2C165,261.4,163.5,259.3,163.3,256.6z"/>
<path class="st6" d="M68.8,78.9c-0.4,0.2-0.8,0.4-1.2,0.7c-3.8,2.5-6.1,7.6-6.7,12c-0.4,3-0.4,6.3,1.1,9.1c0.7,1.2,2.5,1,3.4,0
	c0.6-0.7,1-1.4,1.6-2c4.4-4,6.5,7.5,10.5,7.1c1.8-0.2,2.1-2.8,2.1-4.1c-0.1-1.6-0.4-3.5,1.5-3.8c1-0.2,2,0.3,3-0.3
	c1.5-0.8,0.8-3,0.9-4.3c0.2-2.1,2.2-3.9,1.2-6c-0.9-1.9-3.3-2.5-4.9-3.6C77.5,81,73.5,76.8,68.8,78.9z"/>
<path class="st6" d="M93.9,96.8c1.5,0.3,2.7-1.1,4.2-0.9c1.8,0.2,2.5,2,2.7,3.5c0.4,2.9-0.6,7.7,2.1,9.6c0.6,0.4,1.6,0.2,2.1-0.1
	c2.3-1.5,1.7-5.3,1.6-6.8c-0.3-2.6-1.2-5,0.6-7.3c0.8-1,1.9-1,3-0.4c1.4,0.7,4.5,0.3,4-3.3c-0.8-5.9-2.2-13.3-8.5-15
	c-1-0.3-2.2-0.3-2.9,0.4c-1.5,1.2-0.5,3.9-1.9,5.3c-1.1,1.1-3,0.8-4.6,1.3c-2.8,0.9-3.3,4.1-3.4,6.5C92.8,90.7,91.6,96.3,93.9,96.8z
	"/>
<path class="st1" d="M159.7,201.2c12.2,34.3,58.7,35,75.9,19.7c34.1-30.4,10.2-108-14.7-119.3c-9.4-4.3-23.5-4.3-30.8,2.6
	c-3.2,3-5,6.7-6.5,10.4c-4.4,10.5-8.2,21.2-13.2,31.6C165.4,156.1,151.7,178.6,159.7,201.2z"/>
<path class="st3" d="M160,173.1c0,0,11.5,33.6,58.9,14.2s12.2-75.8,12.2-75.8s6.4,6.6,11.8,19.6c3.6,8.6,6.2,17,8.1,29.4
	c1.4,9.3,1,19.7-0.2,27.8c-3.2,21.5-14.4,39.7-41.1,41.1c-36.8,1.9-47.4-23.9-48.1-25.5C157.7,195.5,157.1,187,160,173.1z"/>
<path class="st7" d="M174,159.6c-4.5,9.5-8.6,20-7.2,30.3c1.8,13.6,14,23.1,27.4,17.8c14.7-5.7,18.4-24.4,16.5-38.3
	c-1.4-10.2-6.2-26.1-17.6-29c-7.6-1.9-12.8,6.6-15.7,12.3C176.3,154.9,175.1,157.2,174,159.6z"/>
<path class="st8" d="M166.6,183.4c0,0,16.6,16.8,42.4,7.4c-3.3,11.2-11,15.8-14.5,16.9c-4.5,1.5-17.5,6.4-25.6-9.8
	C166.1,192.2,166.6,183.4,166.6,183.4z"/>
<path class="st9" d="M214.6,217.3c0.1,3.8,0.2,7.6,0.3,11.4c0.1,6.2,1,14.3-5,18.3c-6.4,4.3-19.6-1.5-22.6,7.9
	c-0.4,1.3-0.4,2.7,0.2,3.9c0.5,1,1.4,1.8,2.4,2.4c3.2,1.9,7.1,2.1,10.8,2.1c3.6,0,7.1,0.2,10.7-0.4c5.7-0.9,10.9-3.7,14.3-8.4
	c2.7-3.8,4-8.4,4.6-13c1-7.8,0.7-17.6,0.3-26.6"/>
<path class="st10" d="M187.9,256.6c0,0,2.3,1.7,9.1,1.5c10.7-0.3,24.6,0.2,28.5-11.5c1.1-3.2,1.8-7.3,1.9-13.3
	c0.1-4.3,0-9.6-0.2-12.9c-1.5,1.8-2.5,2.7-4.4,4.7c-1-1.4-2.3-3.4-3.5-5.3c-1.4,1.1-2,1.5-3.6,2.9c-0.1-1.6-0.1-8.1-0.1-8.1
	l14.4,0.3c0,0,1.8,16.6-0.4,28.3c-1.1,5.9-3.3,11-6.7,13.6c-5.3,4.1-11.3,7.2-27.9,5.2C189.5,261.4,188,259.3,187.9,256.6z"/>
<polyline class="st1" points="212.6,213.8 211.5,220.2 218.8,215.5 222.2,220.6 226.8,215.5 234,220.1 234,214.4 "/>
<path class="st3" d="M189.6,106.1c0,0,16.9,13.9,32.8,9.5c6.7-1.9,7-5.8,4.4-9c-2.3-2.7-7-5-7-5s-6.9,5.1-19.1,4.8
	c-5.7-0.2-9.9-2-9.9-2L189.6,106.1z"/>
<ellipse transform="matrix(0.3336 -0.9427 0.9427 0.3336 66.2999 238.48)" class="st1" cx="201.8" cy="72.3" rx="33.8" ry="33.8"/>
<path class="st11" d="M176.9,79.9c-0.6-2-4.6-4.3-8.6-2.5c-5.5,2.4-7.7,8.6-12.4,3.5c0.7,2.2,2.2,6.8,8.7,5c5.3-1.4,7.2,1.3,10,0.5
	C176.1,86,178,83.5,176.9,79.9z"/>
<path class="st9" d="M184.4,58.1l-44.5-1.9L177.2,82c0,0,8.2,0.8,11.1-8.8C190.3,66.8,188.9,61.1,184.4,58.1z"/>
<ellipse transform="matrix(0.3336 -0.9427 0.9427 0.3336 83.7072 224.5668)" class="st7" cx="200.7" cy="53.1" rx="4.1" ry="4.2"/>
<ellipse transform="matrix(0.3336 -0.9427 0.9427 0.3336 88.4139 241.2299)" class="st7" cx="214.8" cy="58.1" rx="4.1" ry="4.2"/>
<path class="st3" d="M172.3,86.9c0,0,9.4,9.4,22.5,9.8c18,0.5,39.7-11,36.5-38.5c0,0,7.4,12.8,0.6,28c-6.8,15.1-23.2,20.1-33.6,19
	C187.3,104,176.7,97.1,172.3,86.9z"/>
<path class="st10" d="M187.8,64.5c0,0-2.7,10.6-11,7.9c-8.3-2.7-34-15.1-34-15.1l34.4,24.1c0,0,5.7,0.1,8.5-4.3
	C189.3,71.7,188.3,66,187.8,64.5z"/>
<path class="st1" d="M131.6,106.8c-3-2.2-8.9-2.5-10.6,0.6c-1.5,2.7,0.2,5.1,2.3,6.1c1.6,0.7,7,2.7,8.4,4.9"/>
<path class="st12" d="M68.6,78.5c-0.4,0.2-0.7,0.4-1.1,0.6c-3.5,2.3-5.6,7-6.2,11c-0.4,2.8-0.4,5.8,1,8.4c0.6,1.1,1.7,1.1,2.6,0.1
	c0.5-0.6,0.8-1.4,1.4-2c4.1-3.7,6.8,5.6,8.9,7.2c0.5,0.4,1.2,0.7,1.8,0.4c1.5-0.7,1-3.3,0.9-4.5c-0.1-1.5,0.2-3.6,2-3.9
	c1-0.2,1.9,0.2,2.8-0.2c1.4-0.7,0.7-2.8,0.8-4c0.2-1.9,2.1-3.6,1.1-5.6c-0.8-1.7-3-2.3-4.5-3.3C76.6,80.3,73,76.5,68.6,78.5z"/>
<path class="st6" d="M116,162.1c-1-7.4-1.8-16.2-0.9-18.4c0.2-0.5,0.4-1,0.8-1.1c0.5-0.2,1.5,0.5,2,0.6c2.5,0.3,3.4-2.5,3.3-4
	c-0.1-2.5-0.3-5.1,0.6-7.2c0.4-0.9,2.1-0.2,2.9-0.6c3.4-1.3,0.8-11.9-3.9-11.4c-3.3,0.3-5.2,3.4-6.4,5.9c-1.6,3.3-2.7,6.8-5.1,9.7
	c-3.3,4.1-8.4,6.3-13.5,7.1c-6,0.9-10.9-1-15.1-5.1c-5.4-5.2-5.5-14.9-13.2-17.9c-2.6-1-5.4-0.5-7.2,1.7c-1.5,1.8-3,5.2-0.8,7.1
	c0.6,0.5,1.5,0.6,2.3,0.7c1.9,0.2,2.9,1.8,3.3,3.6c0.3,1.6,0.3,5.5,0.8,6c1.3,1.3,2.5,0,3.4-0.6c3.4-2.1,0.6,8.8,0.6,9.6
	c0.1,0.9,1.1,2.3,2.4,2.1c1.7-0.3,2.1-2.1,3.9-1.6c1.5,0.4,0.3,2,2.2,3.3c1.4,1,2.6,0,3,2.2c0,0.1,0,0.1,0,0.1
	c0.3,1.5,2.2,2.2,3.7,1.4c1.3-0.7,1-2.7,2.8-2.4c4,0.8,2.6,8.5,7.8,7.3c4.2-0.9,3.7-5.8,5.4-8.2c0.6-0.8,1.9-0.2,3,1.7
	c0.7,1.2,2.1,0.7,3.5-0.3c1.6-1.2,1.9,3.7,1.7,9.5"/>
<path class="st12" d="M114.4,141.7c0.2-0.5,0.7-0.9,1.2-0.9c0.5,0,0.8,0.4,1.2,0.6c2.4,1.1,3.2-2.2,3.1-3.8c-0.1-2.5-1-5.5,0.9-7.4
	c0.5-0.5,1.2-0.7,2.1-0.7c2.3,0.1,1.9-3.3,1.7-4.5c-0.2-1.3-0.6-2.7-1.4-3.8c-0.7-1.1-1.9-2-3.2-2.4c-3.3-0.8-5.2,2.5-6.4,5
	c-1.6,3.3-2.7,6.8-5.1,9.7c-3.3,4.1-8.4,6.3-13.5,7.1c-6,0.9-10.9-1-15.1-5.1c-5.4-5.2-5.5-14.9-13.2-17.9c-2.6-1-5.4-0.5-7.2,1.7
	c-1.5,1.8-3,5.2-0.8,7.1c0.6,0.5,1.5,0.6,2.3,0.7c1.9,0.2,2.9,1.8,3.3,3.6c0.3,1.6,0.2,3.2,0.5,4.8c0.1,0.7,0.4,1.4,0.9,1.8
	c1.3,1.1,1.8-0.2,2.7-0.8c3.4-2.1,1.4,8.8,1.5,9.6c0.1,0.9,0.6,2,1.5,2.1c1.6,0.1,2.1-2.6,3.9-2c1.5,0.4,1.6,2.7,2.8,3.5
	c1.5,0.9,2.1-0.1,2.4,2c0,0.1,0,0.1,0,0.1c0.3,1.5,2.1,2.6,3.6,1.8c1.3-0.7,1.1-3.2,2.9-2.8c4,0.8,2.4,8.7,7.6,7.6
	c4.2-0.9,2.3-7.5,5.6-8.4c0.8-0.2,1.5,0,3,1.7c0.8,0.9,2.1,0.7,3.5-0.3c1.9-1.5,2,6.4,1.4,13.9c-0.2,2-0.7,4.1-1,5.8
	c-0.4,2.7,1.2,6.8,5.8,5.9c5.1-1,3.5-9.4,3.2-11.7C114.8,157.6,113.2,144.4,114.4,141.7z"/>
<path class="st12" d="M94,95.1c1.3,0.3,2.3-1,3.7-0.9c1.6,0.2,2.2,1.9,2.4,3.3c0.4,2.8-0.1,6.7,1.9,9c0.3,0.4,0.8,0.6,1.2,0.6
	c2.4-0.2,1.7-5.2,1.5-6.6c-0.2-2.5-0.6-5.2,1-7.3c0.7-0.9,1.5-1.1,2.6-0.7c0.7,0.2,1.3,0.6,2,0.5c0.8,0,1.5-0.5,1.8-1.2
	c0.3-0.6,0.2-1.4,0.1-2c-0.7-4.9-2.2-12.6-7.8-14.2c-0.9-0.3-1.9-0.3-2.6,0.3c-1.3,1.2-0.4,3.6-1.6,4.9c-1,1-2.7,0.7-4,1.2
	c-2.5,0.9-2.9,3.9-3,6.1C93.1,89.3,92,94.6,94,95.1z"/>
<path class="st13" d="M196.7,114.9c1.1,1.4,0,2.2,0.4,2.9c0.9,1.8-1,1.9-0.7,3.5c0.3,1.7,0.1,1.7-0.5,2.8c-1.5,3.1-4.4,5.6-8,6.6
	c-3.9,1-7.8,0.2-10.8-2.1c-0.7-0.5-1.1-1.5-1.9-1.8c-1.4-0.4-0.8-1.7-1.5-2.1c-1.5-1-0.4-2.1-1.2-2.9c-1.7-1.7,0-2.4-0.4-3.4
	c-1.1-2.6,1.2-1.8,0.6-4.2c-0.6-2.5,1.9-1.3,1.9-3.3c0-2.3,2.2-1.5,2.7-2.6c1.1-2.5,2.9-0.8,4-1.9c1.4-1.3,2,0.4,3.7-0.4
	c1.6-0.8,1.9,0.8,3.1,0.3c2.1-0.8,1.4,1.3,2.9,1.2c1.6-0.1,0.7,1.7,2.1,2c1.6,0.4,0.7,1.7,2.3,2.6
	C196.8,112.9,195.9,113.8,196.7,114.9z"/>
<path class="st14" d="M175.4,118.7c1.2-0.9,1.3,3.1,2.8,2.1c1.6-1.1,3.5,3.4,4.8,1c0.9-1.7,1.4-1.8,2.8-1.4c1.5,0.4,0.5-3.8,3.4-3.4
	c2.6,0.3,0.1-4.2,1.4-4.9c2-1-1.2-1.8-0.8-3.9c0.5,0.5,1.4,0.2,1.6,0.4c0.2,0.2,0.4,1.3,1,1.7c0.6,0.4,0.8,0.2,1.1,0.5
	s0.6,1.5,1.1,1.9c0.5,0.4,0.7,0.3,0.9,0.6c0.2,0.4-0.1,0.8,0.2,1.6c0.2,0.7,0.6,0.8,0.7,1.4s-0.3,1.2-0.2,1.6s0.7,0.9,0.1,1.7
	c-0.6,0.8-0.7,1.1-0.7,1.4c0,0.2,0.3,1.9,0,2.3s-18.3,4.4-18.3,4.4s-1-1.5-1.6-1.7s-0.8-0.5-0.9-1s-0.2-0.7-0.3-0.9
	c-0.2-0.2-0.8-0.5-0.9-1c-0.1-0.5,0.2-1.1-0.1-1.7c-0.3-0.6-1-0.8-0.8-1.7c0.1-0.5,0.6-0.5,0.7-1.3
	C173.4,119.3,173.5,120,175.4,118.7z"/>
<line class="st15" x1="178.8" y1="112.1" x2="180.2" y2="112.6"/>
<line class="st16" x1="179.7" y1="109.3" x2="181.1" y2="108.8"/>
<line class="st15" x1="187.5" y1="108.7" x2="186.9" y2="110.1"/>
<line class="st16" x1="184.6" y1="111.4" x2="185.8" y2="112.3"/>
<line class="st16" x1="175.7" y1="115.1" x2="176" y2="113.6"/>
<polygon class="st17" points="179.3,134.5 194.5,155.1 197.4,128.9 198.4,128.6 196.9,123.1 176.4,128.7 178.1,134.9 "/>
<line class="st18" x1="195.2" y1="146" x2="183.2" y2="132.8"/>
<polyline class="st18" points="195.4,139.4 188,131.5 186.9,144 "/>
<polyline class="st19" points="191.2,149.2 192.2,130.3 196.5,134.8 "/>
<path class="st20" d="M190.4,125.9c0,0,0.9,1.7,0,4.5c2.6-0.7,7-1.9,7-1.9l-1.1-4.2L190.4,125.9z"/>
<path class="st1" d="M238.6,125.2c1.2,7.2,1.1,15.1-0.2,22.2c-1.7,9.8-9.9,21.6-21.8,19c-4.2-0.9-7.5-2.8-10.7-5.6
	c-2.7-2.3-5.7-4.3-9.1-5.3c-2.9-0.9-6.4-1.2-8.3-3.6c-2.1-2.6-1.6-6.8,0.6-9.2c6.1-6.4,16.6-1.5,21.5,3.7c4.2,4.4,9.5,4.5,12.6-1.4
	c2.3-4.5,3.2-10,3.2-15"/>
<path class="st3" d="M188.4,149.5c0,0,3.2,2.9,9.7,2.9c6.5,0,10.5,5.8,13.5,7.6s16.9,4.1,22.4-6.7c5.5-10.8,4.1-16.9,4.4-21
	c0.6,9.1-0.8,20-5.4,26.1c-4.5,5.9-11.7,11.4-22.5,4.5c-7.8-5-8.5-7.8-15.5-8.8C192.2,153.9,189.5,152.7,188.4,149.5z"/>
<line class="st21" x1="101.3" y1="85.1" x2="102.6" y2="84.9"/>
<line class="st15" x1="102" y1="92.4" x2="101.5" y2="93.6"/>
<line class="st21" x1="108.9" y1="89.2" x2="109.8" y2="90.2"/>
<line class="st16" x1="96.7" y1="90.2" x2="97.1" y2="89"/>
<line class="st15" x1="104.6" y1="80.4" x2="105.6" y2="81.2"/>
<line class="st21" x1="77" y1="85.1" x2="76.2" y2="86.1"/>
<line class="st15" x1="64.9" y1="91.6" x2="66.1" y2="92.1"/>
<line class="st16" x1="72.8" y1="81.8" x2="73.4" y2="82.9"/>
<line class="st15" x1="68" y1="126.7" x2="68.1" y2="125.4"/>
<line class="st15" x1="63" y1="120.8" x2="64.2" y2="120.9"/>
<line class="st16" x1="67" y1="122.5" x2="67.4" y2="121.3"/>
<line class="st16" x1="95.8" y1="145.2" x2="96.6" y2="146.2"/>
<line class="st21" x1="71.2" y1="130.1" x2="72.4" y2="129.9"/>
<line class="st15" x1="69.5" y1="131.5" x2="70.5" y2="132.3"/>
<line class="st15" x1="74.5" y1="135.5" x2="74.6" y2="136.7"/>
<line class="st21" x1="99.9" y1="145.4" x2="100.9" y2="144.6"/>
<line class="st15" x1="118.9" y1="127.1" x2="118.5" y2="125.9"/>
<line class="st16" x1="115.9" y1="127.7" x2="115" y2="128.7"/>
<line class="st18" x1="179.1" y1="133.9" x2="197.1" y2="129"/>
<line class="st19" x1="183.2" y1="132.8" x2="183.2" y2="139.1"/>
<path class="st3" d="M132.6,118.4c0,0,3.8-1.7,4.1-4.8c0.3-3.1-10.6,0.3-14.8-2.6c1.4,1.9,5.2,3,5.9,3.4
	C128.5,114.8,132.7,116.6,132.6,118.4z"/>
<line class="st21" x1="111.1" y1="137.9" x2="110.3" y2="136.9"/>
<line class="st15" x1="105.7" y1="142.5" x2="106.8" y2="141.8"/>
<line class="st15" x1="105.8" y1="147.2" x2="105.7" y2="148.4"/>
<line class="st16" x1="108.3" y1="143.5" x2="109" y2="144.5"/>
<path class="st0" d="M192,40c0,0,14.3,4.6,28.1,3.9S215,28.5,207,25.4c-8.4-3.3-27.3-6-34.6,7.3c-5.5,10,0.4,11.2,5.1,10.9
	c2-0.2,2.9,2.6,2.9,2.6S186.8,40.9,192,40z"/>
<path d="M171.7,41.1c0,0,3.2-6.6,11.4-7.5c8.2-0.9,11.3,5.2,17.9,7.5s-9.2-1.9-9.2-1.9s-5.6,1.4-11.5,5.6c-0.9-1.6-0.3-2.4-4.7-2
	C171.4,43.2,171.7,41.1,171.7,41.1z"/>
<path class="st11" d="M177.2,80.8c0.8-1.9,5-3.8,8.9-1.6c5.3,3,7.1,8.9,12.4,4.3c-0.9,2.1-3.3,7-9.5,4.6c-5.1-2-7.3,0.5-10-0.5
	C177.4,87,175.7,84.3,177.2,80.8z"/>
</svg>
