<svg id="Layer_1" data-name="Layer 1" xmlns="http://www.w3.org/2000/svg" viewBox="0 0 778.77 238.88"><defs><style>.cls-1,.cls-9{fill:#ab6cab;}.cls-1{stroke:#54306d;}.cls-1,.cls-15,.cls-27,.cls-30,.cls-5,.cls-7,.cls-8{stroke-linejoin:round;}.cls-2{fill:#9f559d;}.cls-17,.cls-18,.cls-3,.cls-4,.cls-7,.cls-8{fill:none;}.cls-3{stroke:#74caeb;}.cls-12,.cls-14,.cls-15,.cls-17,.cls-18,.cls-25,.cls-27,.cls-3,.cls-4,.cls-8{stroke-linecap:round;}.cls-10,.cls-12,.cls-14,.cls-17,.cls-18,.cls-19,.cls-23,.cls-25,.cls-29,.cls-3,.cls-4{stroke-miterlimit:10;}.cls-4{stroke:#f4e953;}.cls-19,.cls-24,.cls-5{fill:#f59b26;}.cls-5,.cls-7,.cls-8{stroke:#634015;}.cls-6{fill:#db863b;}.cls-10,.cls-26{fill:#794a98;}.cls-10,.cls-14,.cls-15{stroke:#1d122c;}.cls-11{fill:#694388;}.cls-12,.cls-28{fill:#555452;}.cls-12,.cls-18,.cls-25,.cls-27,.cls-30{stroke:#1d1d1b;}.cls-13,.cls-25,.cls-27{fill:#424242;}.cls-14,.cls-15{fill:#865aa1;}.cls-16{fill:#1d1d1b;}.cls-17{stroke:#ef7b7b;stroke-width:4px;}.cls-18{stroke-width:0.75px;}.cls-19,.cls-23,.cls-29{stroke:#a53d17;}.cls-20{fill:#cc7a1d;}.cls-21{fill:#fff;}.cls-22{fill:#ededed;}.cls-23{fill:#fbbb20;}.cls-29{fill:#f18c89;}.cls-30{fill:#2c509e;}.cls-31{fill:#23437a;}.cls-32{fill:#a078b3;}.cls-33{fill:#9168aa;}</style></defs><title>penguins</title><path class="cls-1" d="M519.18,108.78c.67,1.67-.55,2.17-.39,3,.37,2-1.5,1.61-1.68,3.24a3.14,3.14,0,0,1-1.21,2.63,12.93,12.93,0,0,1-19.85-.58c-.56-.71-.67-1.82-1.44-2.3-1.28-.8-.32-1.86-.93-2.54-1.24-1.38.14-2.21-.38-3.18-1.19-2.19.65-2.34.48-3.48-.42-2.9,1.65-1.43,1.75-3.95s2.24-.82,2.8-2.78c.67-2.32,2.57-.86,3.39-1.88,1.76-2.18,3.13-.05,4.53-.8,1.76-.94,1.85.93,3.78.58s1.64,1.27,3,1.16c2.25-.19,1.07,1.64,2.57,2s.26,1.91,1.58,2.6c1.53.8.25,1.93,1.57,3.17C519.84,106.73,518.65,107.46,519.18,108.78Z" transform="translate(-67.03 -26.79)"/><path class="cls-2" d="M496.8,107.08c1.41-.59.59,3.53,2.37,2.83,2-.77,2.79,4.42,4.7,2.22,1.29-1.49,1.88-1.48,3.23-.79s1.45-3.77,4.31-2.69c2.59,1,1.12-4.35,2.61-4.68,2.31-.52-.75-2.12.16-4.22.42.64,1.4.54,1.59.83s.09,1.44.6,2,.75.41,1,.77.21,1.71.61,2.27.68.45.81.9-.28.86-.22,1.67.38,1,.36,1.63-.6,1.13-.65,1.6.45,1.11-.37,1.75-1.05,1-1.12,1.24-.18,2.07-.61,2.31-19.92-.06-19.92-.06-.68-1.83-1.23-2.12a1.12,1.12,0,0,1-.67-1.27,1.34,1.34,0,0,0-.11-1c-.13-.21-.69-.72-.67-1.27s.44-1.09.29-1.73-.78-1.11-.43-1.93c.22-.49.77-.34,1-1.13C494.57,107.25,494.51,108,496.8,107.08Z" transform="translate(-67.03 -26.79)"/><line class="cls-3" x1="435.13" y1="74.26" x2="436.4" y2="75.21"/><line class="cls-4" x1="436.77" y1="71.73" x2="438.35" y2="71.67"/><line class="cls-3" x1="444.75" y1="73.31" x2="443.73" y2="74.53"/><line class="cls-4" x1="441.05" y1="75.17" x2="442.04" y2="76.42"/><line class="cls-4" x1="431.29" y1="76.48" x2="431.97" y2="75.05"/><polygon class="cls-5" points="429.51 95.98 439.06 121.21 449.03 96.04 450.05 96.04 450.07 90.16 428.24 90.09 428.23 95.97 429.51 95.98"/><path class="cls-6" d="M508.53,123.43s0,7.26-8.32,7c.91,2.77,5.92,16,5.92,16l9-23Z" transform="translate(-67.03 -26.79)"/><line class="cls-5" x1="429.51" y1="95.98" x2="449.03" y2="96.04"/><polyline class="cls-7" points="441.42 115.25 433.88 95.99 431.89 102.26"/><polyline class="cls-7" points="443.86 109.08 438.97 96.01 434.57 109.34"/><polyline class="cls-8" points="436.81 115.26 443.5 96.02 446.07 103.5"/><path class="cls-6" d="M510.82,117.69a6.43,6.43,0,0,1-1.06,4.36c2.48,0,6.7,0,6.7,0v-4.4Z" transform="translate(-67.03 -26.79)"/><path class="cls-9" d="M503,92.08s2.41-9.45,6-6.84C511.79,87.3,504.48,90,503,92.08Z" transform="translate(-67.03 -26.79)"/><path class="cls-10" d="M789,108c9.25-5.9,23-3,29.05,6.14a36.3,36.3,0,0,0,3.6,5.32,22.69,22.69,0,0,0,4.94,3.48c8.46,5.06,18.44,21,18.65,31.68.2,9.92-5.89,20.95-19.17,26.72a70.39,70.39,0,0,1-31.55,6c-19.78-.45-23.46-10.81-20.63-17.13,5-11.25,20.63-4.61,20,1.28-.26,2.58-7.12,3.89-11.78,2.72,4.7,1.08,11.72,2.49,16.59-.16s6.26-8,9.38-12.08a19.49,19.49,0,0,1,15.8-7.47,25.85,25.85,0,0,1-14.88-9c-3.82-4.7-4.66-14.08-11.88-15" transform="translate(-67.03 -26.79)"/><path class="cls-11" d="M784.61,179s42.16,8.71,45.72-20.75c10.19,2.23,12.48-10.72,5.53-23.71,2.6,3.61,11.72,15,6.35,29.24-2.7,7.16-10.62,15.55-24.92,19.49-7.07,2-15.77,3.5-23.38,3.07-4.75-.27-8.81-1.72-12.59-3.07A44.87,44.87,0,0,0,784.61,179Z" transform="translate(-67.03 -26.79)"/><path class="cls-12" d="M136.51,140.42c-10.57,6-23.63,6.42-35.34,3.23A62.58,62.58,0,0,1,72.92,127c-2.16-2.23-4.22-4.72-5.05-7.71s-.17-6.59,2.32-8.46c2.71-2,6.7-1.41,9.55.44s4.89,4.66,7.13,7.21c8.89,10.11,26.33,18.85,40.79,9.57" transform="translate(-67.03 -26.79)"/><path class="cls-13" d="M126.07,129.81A23.36,23.36,0,0,1,109.21,140c-11.36,1.08-11.86.74-17.78-.71,4.38,2.24,18,8.22,33.93,4.55C125.73,138.18,126.07,129.81,126.07,129.81Z" transform="translate(-67.03 -26.79)"/><path class="cls-14" d="M783.65,182c11.11-19.54,29.63-34.63,36.89-56.28A53.72,53.72,0,0,0,760,55.83a49.35,49.35,0,0,0-26.35,13.64c-34.66,35.3-15.1,92.37-3,133.09,2.66,9,5.33,18.58,2.5,27.49-2.31,7.27-17.89,21.26-26.46,22.24,6,6.9,13,11,16.56,11.24,10.74.67,19.53-11.09,38.55-11.39,12.68-.2,17.4,8.59,24.48,12.29,5.82,3,22.52-3.7,23.88-12-9.44-3.4-23.57-15-29.74-24.29s-6.26-21.42-3-32A70.09,70.09,0,0,1,783.65,182Z" transform="translate(-67.03 -26.79)"/><path class="cls-15" d="M726.87,109c-9.25-5.9-23-3-29.05,6.14a36.3,36.3,0,0,1-3.6,5.32,22.69,22.69,0,0,1-4.94,3.48c-8.46,5.06-18.44,21-18.65,31.68-.2,9.92,5.89,20.95,19.17,26.72a70.39,70.39,0,0,0,31.55,6c19.78-.45,23.46-10.81,20.63-17.13-5-11.25-20.63-4.61-20,1.28.26,2.58,7.12,3.89,11.78,2.72-4.7,1.08-11.72,2.49-16.59-.16s-6.26-8-9.38-12.08a19.49,19.49,0,0,0-15.8-7.47,25.85,25.85,0,0,0,14.88-9c3.82-4.7,4.66-14.08,11.88-15" transform="translate(-67.03 -26.79)"/><path class="cls-16" d="M788.31,107.08l12.51-12.46h0c1.66-2.46-1.45-4-4.19-2h0l-12.51,12.46h0c-1.07,2.23,1.55,3.5,4.19,2Z" transform="translate(-67.03 -26.79)"/><path class="cls-17" d="M794.47,127.54c-2.62-6-7.64-10.15-13.66-10.58-6.65-.48-12.74,3.75-16,10.32" transform="translate(-67.03 -26.79)"/><path class="cls-16" d="M771.62,107.08,759.11,94.62h0c-1.66-2.46,1.45-4,4.19-2h0l12.51,12.46h0c1.07,2.23-1.55,3.5-4.19,2Z" transform="translate(-67.03 -26.79)"/><path class="cls-18" d="M794.47,127.54c-2.62-6-7.64-10.15-13.66-10.58-6.65-.48-12.74,3.75-16,10.32" transform="translate(-67.03 -26.79)"/><path class="cls-14" d="M788.23,70.37s-2.51-35.2-46.92-42.79c8.62,7.7,12.61,18.16,13.78,29.86" transform="translate(-67.03 -26.79)"/><path class="cls-19" d="M131.7,214.8l.24,10.33c.13,5.62.88,12.95-4.48,16.58-5.8,3.92-17.72-1.39-20.41,7.17a4.85,4.85,0,0,0,.15,3.5,5.22,5.22,0,0,0,2.13,2.18c2.91,1.71,6.47,1.87,9.75,1.88a59.42,59.42,0,0,0,9.68-.33,19.45,19.45,0,0,0,13-7.63,25.66,25.66,0,0,0,4.19-11.76c.94-7.09.64-15.87.28-24" transform="translate(-67.03 -26.79)"/><path class="cls-20" d="M107.49,250.36s2.12,1.53,8.22,1.35c9.69-.27,22.24.21,25.76-10.39a41.23,41.23,0,0,0,1.75-12c.1-3.87,0-8.66-.15-11.67-1.4,1.6-2.27,2.41-4,4.27-.9-1.27-2.1-3.1-3.2-4.83-1.29,1-1.78,1.4-3.27,2.62-.09-1.43-.09-7.34-.09-7.34l13,.28s1.63,15-.32,25.63c-1,5.31-3,9.92-6.1,12.34-4.77,3.72-10.2,6.54-25.21,4.71C109,254.75,107.64,252.79,107.49,250.36Z" transform="translate(-67.03 -26.79)"/><path class="cls-12" d="M104.25,200.25c11,31,53.1,31.66,68.64,17.81,30.88-27.52,9.22-97.7-13.28-107.93-8.53-3.88-21.27-3.88-27.89,2.33-2.91,2.73-4.53,6.08-5.91,9.41-4,9.52-7.37,19.18-12,28.54C109.37,159.46,97,179.84,104.25,200.25Z" transform="translate(-67.03 -26.79)"/><path class="cls-13" d="M104.26,174.89s10.6,30.35,53.5,12.8,11.09-69,11.09-69,5.77,6.38,10.66,18.11a106.87,106.87,0,0,1,7.31,26.6,88.75,88.75,0,0,1-.18,25.14c-2.86,19.44-13,35.89-37.17,37.13-33.28,1.71-42.84-21.6-43.51-23C102.39,195.15,101.61,187.48,104.26,174.89Z" transform="translate(-67.03 -26.79)"/><path class="cls-12" d="M171.65,131.58c11.81,2.82,22,11.12,28.37,21.43a62.58,62.58,0,0,1,9.36,31.44c.07,3.11-.12,6.33-1.54,9.09s-4.36,4.94-7.45,4.62c-3.38-.35-5.87-3.53-6.7-6.82s-.41-6.75-.32-10.14c.37-13.46-6.47-31.72-23.39-34.77" transform="translate(-67.03 -26.79)"/><path class="cls-21" d="M117.11,162.62c-4.11,8.59-7.74,18.09-6.52,27.41,1.61,12.27,12.66,20.85,24.83,16.12,13.28-5.16,16.68-22.07,14.93-34.65-1.29-9.26-5.59-23.62-15.95-26.25-6.86-1.75-11.6,6-14.21,11.17C119.18,158.41,118.13,160.49,117.11,162.62Z" transform="translate(-67.03 -26.79)"/><path class="cls-22" d="M110.43,184.14s15,15.23,38.36,6.68c-3,10.09-9.94,14.26-13.12,15.31-4.11,1.35-15.82,5.75-23.13-8.87C110,192.14,110.43,184.14,110.43,184.14Z" transform="translate(-67.03 -26.79)"/><path class="cls-23" d="M153.89,214.8l.24,10.33c.13,5.62.88,12.95-4.48,16.58-5.8,3.92-17.72-1.39-20.41,7.17a4.85,4.85,0,0,0,.15,3.5,5.22,5.22,0,0,0,2.13,2.18c2.91,1.71,6.47,1.87,9.75,1.88a59.42,59.42,0,0,0,9.68-.33,19.45,19.45,0,0,0,13-7.63,25.66,25.66,0,0,0,4.19-11.76c.94-7.09.64-15.87.28-24" transform="translate(-67.03 -26.79)"/><path class="cls-24" d="M129.68,250.37s2.12,1.53,8.22,1.35c9.69-.27,22.24.21,25.76-10.39a41.23,41.23,0,0,0,1.75-12c.1-3.87,0-8.66-.15-11.67-1.4,1.6-2.27,2.41-4,4.27-.9-1.27-2.1-3.1-3.2-4.83-1.29,1-1.78,1.4-3.27,2.62-.09-1.43-.09-7.34-.09-7.34l13,.28s1.63,15-.32,25.63c-1,5.31-3,9.92-6.1,12.34-4.77,3.72-10.2,6.54-25.21,4.71C131.16,254.76,129.83,252.79,129.68,250.37Z" transform="translate(-67.03 -26.79)"/><polyline class="cls-25" points="85 184.91 84.01 190.71 90.66 186.42 93.68 191.07 97.83 186.42 104.42 190.57 104.42 185.39"/><path class="cls-13" d="M201.47,157s4.51,7.08,6.57,19.23c2.87,16.92-2.83,21.59-7.77,21.13s-6.12-7.13-6.12-7.13c3.2,3.29,7.17-.25,8.32-1.65C206.12,184.14,206.62,172.27,201.47,157Z" transform="translate(-67.03 -26.79)"/><path class="cls-13" d="M131.18,113.94s15.37,12.94,29.78,9c6.09-1.68,6.36-5.28,4-8.14-2-2.43-6.35-4.48-6.35-4.48s-6.22,4.65-17.31,4.33a26.3,26.3,0,0,1-9-1.81Z" transform="translate(-67.03 -26.79)"/><path class="cls-26" d="M763.14,184.15c-15.77,8.76,2.42,42.46,15.34,51.88,0,0,16.6,10.2,16,14.95-.91,7.12-10.69,5-22.57-3.53s-26-1.45-36.13,6.49-26.28-.66-26.28-.66c3.27,4.82,11.36,10.49,16,9.85,6.23-.87,17.71-9.17,31.45-11.3S782.59,261,782.59,261s5.48,7.39,17.41,1c4.71-2.5,7.83-4.6,9.19-9.09,0,0-13-6.24-20-12.95-2.6-2.48-17.08-16.41-14.89-34.94s16.66-36.83,20.16-41.14C785.6,172.43,778.92,175.39,763.14,184.15Z" transform="translate(-67.03 -26.79)"/><path class="cls-26" d="M727.52,117.47s-14.12,15.13-25.79,8c2.14,5.31,3.94,24.95-19.55,29.06,4.11,2.46,18.56-1.54,24.55-9.86,5-7,4.86-15.11,12.42-13.89C725.07,131.75,727.52,117.47,727.52,117.47Z" transform="translate(-67.03 -26.79)"/><path class="cls-26" d="M684.42,177.63s16.46,5.16,22.3-2.89c3.71,2.3,11.48,9.49,25.72,6.57,9.44-1.94,8.21-8.83,8.21-8.83s4.76,13.43-17.08,14.74S685.84,179.2,684.42,177.63Z" transform="translate(-67.03 -26.79)"/><path class="cls-14" d="M720.69,181.59s1.22-9.84,7.43-9.06c4.73.6-.09,10.24-.09,10.24" transform="translate(-67.03 -26.79)"/><path class="cls-26" d="M722.18,181.75a7.63,7.63,0,0,0,5.89-7.88c2.64.93-1.49,9.58-2.41,10.24" transform="translate(-67.03 -26.79)"/><path class="cls-12" d="M450.77,152.07c9.32,7.74,21.42,11,32.56,10.74A50.46,50.46,0,0,0,510.93,154c2.19-1.54,4.3-3.34,5.32-5.86a7.82,7.82,0,0,0-1.46-8.17,8.47,8.47,0,0,0-8.91-1.72c-2.8,1-4.93,3.14-7.22,5-9.08,7.19-26,11.24-38.67-.36" transform="translate(-67.03 -26.79)"/><circle class="cls-12" cx="142.06" cy="84.36" r="30.54" transform="translate(-18.21 193.95) rotate(-86.34)"/><path class="cls-23" d="M123.43,76.26,84.23,85.6,123,98.86s7.36-1.32,7.52-10.42C130.65,82.36,128,77.79,123.43,76.26Z" transform="translate(-67.03 -26.79)"/><ellipse class="cls-21" cx="136.32" cy="67.87" rx="3.71" ry="3.76" transform="translate(-7.14 172.79) rotate(-86.34)"/><ellipse class="cls-21" cx="149.86" cy="68.74" rx="3.71" ry="3.76" transform="translate(4.67 187.11) rotate(-86.34)"/><path class="cls-13" d="M120,104.27s10.51,5.83,22,2.93c15.76-4,31.83-19.37,22.25-42.48a29.52,29.52,0,0,1,7.4,24.2c-2.18,14.84-15.25,23.25-24.58,24.84C137.26,115.45,126.34,112.07,120,104.27Z" transform="translate(-67.03 -26.79)"/><path class="cls-24" d="M128,80.86s.23,10-7.63,9.71-33.29-4.73-33.29-4.73L122.92,98.3s5-1.29,6.36-5.84A14.94,14.94,0,0,0,128,80.86Z" transform="translate(-67.03 -26.79)"/><path class="cls-12" d="M491.67,147.77s3.17-3.16,3.21-6.71,5-6.34,6.79-1.75-1.8,9.08-1.8,9.08" transform="translate(-67.03 -26.79)"/><path class="cls-13" d="M465.25,156.13s12.43,3,21.94,1.71,22.1-5.7,25-10.59,2.05-7.37,2.05-7.37,5.08,6.08-1.79,12.38-20.6,9.05-23.64,9.35a65.1,65.1,0,0,1-11,.49,51.34,51.34,0,0,1-11.7-2.38C458.85,157.47,465.25,156.13,465.25,156.13Z" transform="translate(-67.03 -26.79)"/><path class="cls-19" d="M459.39,225l10.25,1.31c5.58.72,12.78,2.22,17-2.74,4.5-5.36-.59-19.56,9.25-19.56,9.45,0,5.79,19.18,4.94,22.34a19.45,19.45,0,0,1-8.94,12.11,25.66,25.66,0,0,1-12.14,2.95c-7.15.2-15.86-1-23.95-2.22" transform="translate(-67.03 -26.79)"/><path class="cls-20" d="M467.29,237.77s16.77,2.44,22.62-1.83a20.45,20.45,0,0,0,8.45-13.68,83.16,83.16,0,0,0,.83-11.83,9.48,9.48,0,0,0-1.5-5.27c4.16,1.28,3.84,9.11,3.67,11.52-.37,5.3-1,12.62-5.55,17.61s-9.32,6.21-18,6.4-11.64-1.22-11.64-1.22Z" transform="translate(-67.03 -26.79)"/><path class="cls-12" d="M484.05,220.34c-11,31-55.07,29.28-70.61,15.43-30.88-27.52-9.22-97.7,13.28-107.93,8.53-3.88,21.27-3.88,27.89,2.33,2.91,2.73,4.53,6.08,5.91,9.41,4,9.52,7.43,17.76,6.7,30.42C484.42,176.74,491.3,199.94,484.05,220.34Z" transform="translate(-67.03 -26.79)"/><path class="cls-13" d="M457.45,135s5.76,30.2-6.31,41.14c9.75-.52,19.46,10.82,19.85,20.45S465.89,224,444.44,225c-10.7.49-32.06-5.24-43.88-15.48,3,17.55,14.28,27.28,18.77,29.62,10.43,5.43,35.83,8,50.83-1.83s17.8-28,15.6-41.08-9.09-19.73-10.58-20.71-4.78-4.15-8.56-5.49C466.7,158,464.76,148.4,457.45,135Z" transform="translate(-67.03 -26.79)"/><path class="cls-21" d="M460,174.1c10.24,5,15,14.91,15.18,24.31.27,12.37-9.34,22.54-22.09,19.71-13.91-3.08-19.84-19.28-20-32-.13-9.35,1.93-24.19,11.77-28.37C451.35,155,462.19,164.6,460,174.1Z" transform="translate(-67.03 -26.79)"/><path class="cls-22" d="M457.68,163.73s-2.27,9.38-9.09,13c8.41,1.68,25.47,21.46,15.11,40.64,5.61-1.54,14.75-10.69,10.61-25.43S460,174.1,460,174.1A12,12,0,0,0,457.68,163.73Z" transform="translate(-67.03 -26.79)"/><path class="cls-23" d="M431,227.64c4.09,2.5,11,7.84,16.05,5.15,2.15-1.14,3-3.8,3.12-6.23.11-2.08-.31-8.21,1.56-11a6.93,6.93,0,0,1,7.51-2.44c7,2.5,7.58,12.71,6.42,18.8-1.24,6.53-5,13.32-11.31,16.07a23.16,23.16,0,0,1-15.19.68,43.38,43.38,0,0,1-13.73-7" transform="translate(-67.03 -26.79)"/><path class="cls-24" d="M460.32,214.46s7.05,18-9.22,26.94-24.17-2.67-24.17-2.67l-.06,3.09s10.32,7.93,21.47,7,15.22-10.8,16.45-17.39S465.43,217.35,460.32,214.46Z" transform="translate(-67.03 -26.79)"/><polyline class="cls-27" points="364.37 196.86 371.2 199.77 362.91 203.79 365.33 209.5 358.75 210 359.5 217.77 354.93 214.24"/><path class="cls-12" d="M417.26,135.63s-8.4,3.09-16.7,17c-3.58,6-6.23,17.35-3.78,24.13,3.18,8.8,30.11,4.41,38.1,3.88,4.92-.33,13-1,14.54-6.6,1-3.58-1.85-6-8.75-8.12s-15.88,1.41-26.65,3c-7.81,1.13-.43-12.07,5.92-16.21" transform="translate(-67.03 -26.79)"/><path class="cls-13" d="M447,169.46s.64,5.67-12,7.13-27.62,4.12-32.64-.27c-2.57-2.25-5.95-4.75-5.95-4.75s-.36,6.73,5.25,8.39a36.19,36.19,0,0,0,10.05,1.64,137.41,137.41,0,0,0,15.1-.79c10-1,13.22-.82,15.64-1.83s6.34-1.82,6.34-6.4C448.85,170.87,447,169.46,447,169.46Z" transform="translate(-67.03 -26.79)"/><path class="cls-12" d="M514.8,139.93c-5.48-6.52-17.67,1.62-10.69,10.69" transform="translate(-67.03 -26.79)"/><path class="cls-13" d="M422.47,131.46s14.57,13.23,29,9.05c6.09-1.77,5.61-6.31,3.21-9.31a12.31,12.31,0,0,0-4.79-3.58H428Z" transform="translate(-67.03 -26.79)"/><circle class="cls-12" cx="438.11" cy="99.01" r="30.54" transform="translate(-74.47 128.97) rotate(-19.99)"/><ellipse class="cls-21" cx="438.98" cy="81.57" rx="3.76" ry="3.71" transform="translate(-68.46 128.22) rotate(-19.99)"/><ellipse class="cls-21" cx="426.24" cy="86.21" rx="3.76" ry="3.71" transform="translate(-70.81 124.14) rotate(-19.99)"/><path class="cls-28" d="M430.85,87.44s-4.48-.46-6.76,3.12c.76,1.26,4.23.49,4.23.49S431.2,89.24,430.85,87.44Z" transform="translate(-67.03 -26.79)"/><path class="cls-28" d="M440.88,86.22s2.88-1.81,2.53-3.61c0,0-4.48-.46-6.76,3.12" transform="translate(-67.03 -26.79)"/><path class="cls-13" d="M417.27,120.27s20.41,4,34.05-4.21c11.88-7.13,16.55-22.21,16.55-22.21s1.19,12.64-4.75,21.58a30,30,0,0,1-28.8,13.13A29.08,29.08,0,0,1,417.27,120.27Z" transform="translate(-67.03 -26.79)"/><path class="cls-29" d="M483.88,88.44c1.91,1.6,5.18,2.86,7.94,2.07,7.37-2.09,10.11,4.88,2,6.81-5.47,1.3-12.16-2.77-14.84-7.08" transform="translate(-67.03 -26.79)"/><path class="cls-23" d="M456.69,81.69l40.24-2.07-33.49,23.63s-7.43.8-10.15-7.88C451.48,89.58,452.69,84.46,456.69,81.69Z" transform="translate(-67.03 -26.79)"/><path class="cls-24" d="M453.59,87.39s2.61,9.7,10.05,7.17,30.62-13.9,30.62-13.9l-30.89,22s-5.16.17-7.74-3.82A14.94,14.94,0,0,1,453.59,87.39Z" transform="translate(-67.03 -26.79)"/><path class="cls-30" d="M729.9,235.67s17.8,1,19.53,18.43c4.6-2.19,16.45-4,23.23.4,1.18-5.26,4.35-14.08,13.05-19.77-4.71-6.37-7.24-10.74-9.21-15.49-4.61,1.92-33.43,4.51-42.14,1.66A28.1,28.1,0,0,1,729.9,235.67Z" transform="translate(-67.03 -26.79)"/><path class="cls-31" d="M748,246.38s15-7.89,25.63,2.3a48.14,48.14,0,0,0-1.42,4.76,27.67,27.67,0,0,0-22.1-.33S749,247.53,748,246.38Z" transform="translate(-67.03 -26.79)"/><path class="cls-31" d="M766.25,221.91s8.38,11.75,14.79,15.44a25.87,25.87,0,0,1,3.7-2.63s-7.89-11.6-8.71-14.46C774.21,220.84,766.25,221.91,766.25,221.91Z" transform="translate(-67.03 -26.79)"/><path class="cls-32" d="M734.51,95.7a2.82,2.82,0,0,0,1.9.71c4.84-.2,6.59-10.94,9.72-13.83,4.35-4,10.83-3.45,11.87-10.4.89-6-7.49-6.49-11.9-3.84-6.28,3.78-12.91,10.54-14.1,18.05A12.09,12.09,0,0,0,733.16,94,5.72,5.72,0,0,0,734.51,95.7Z" transform="translate(-67.03 -26.79)"/><path class="cls-32" d="M714.37,109.37a8.89,8.89,0,0,0-5.83.88c-1.68.88-4.77,3.85-2.79,5.89.85.87,2.32.64,3.41.11,1.69-.81,3.11-2.16,4.9-2.71a7.32,7.32,0,0,0,1.74-.6,1.52,1.52,0,0,0,.34-2.35,4.83,4.83,0,0,0-1.77-1.22" transform="translate(-67.03 -26.79)"/><path class="cls-32" d="M687.06,130.11a10.75,10.75,0,0,0-2.48,2.87,5.07,5.07,0,0,0-.94,2.33,2,2,0,0,0,1.18,2.05c1.13.39,2.21-.62,3.09-1.43a13.53,13.53,0,0,1,4.78-2.82c2-.67,3.47-3.18,1.32-4.76C692.08,126.94,688.64,128.92,687.06,130.11Z" transform="translate(-67.03 -26.79)"/><path class="cls-32" d="M695.24,159.8a4.81,4.81,0,0,1,3.4,1.21c.87.92,1,2.72-.06,3.38a2.55,2.55,0,0,1-.92.32c-2.82.53-5.95-.24-8.45,1.22-1.22.71-3.27,3.08-4.78,1.73-.92-.82-.53-2.69-.07-3.62C686.07,160.62,692,159.67,695.24,159.8Z" transform="translate(-67.03 -26.79)"/><path class="cls-33" d="M812.71,166.16a2.21,2.21,0,0,0,2.51,0c.78-.44,1.4-1.12,2.16-1.6,1-.62,4-1.21,3.9-2.78-.06-1.2-1.89-1.71-2.83-1.81C816.24,159.76,810,163.7,812.71,166.16Z" transform="translate(-67.03 -26.79)"/></svg>