<?xml version="1.0" encoding="utf-8"?>
<!-- Generator: Adobe Illustrator 20.1.0, SVG Export Plug-In . SVG Version: 6.00 Build 0)  -->
<svg version="1.1" id="Layer_1" xmlns="http://www.w3.org/2000/svg" xmlns:xlink="http://www.w3.org/1999/xlink" x="0px" y="0px"
	 viewBox="0 0 288 288" style="enable-background:new 0 0 288 288;" xml:space="preserve">
<style type="text/css">
	.st0{fill:#2C528A;stroke:#000000;stroke-width:1.5;stroke-linecap:round;stroke-linejoin:round;stroke-miterlimit:10;}
	.st1{fill:#FFF7D3;stroke:#000000;stroke-width:1.5;stroke-linejoin:round;stroke-miterlimit:10;}
	.st2{fill:none;stroke:#000000;stroke-width:0.5;stroke-linejoin:round;stroke-miterlimit:10;stroke-dasharray:3,0.75;}
	.st3{fill:#962D1A;stroke:#000000;stroke-linejoin:round;stroke-miterlimit:10;}
	.st4{fill:#203C66;stroke:#000000;stroke-width:1.5;stroke-linejoin:round;stroke-miterlimit:10;}
	.st5{fill:#F8C398;stroke:#000000;stroke-width:1.5;stroke-miterlimit:10;}
	.st6{fill:#F8C398;stroke:#000000;stroke-width:1.5;stroke-linecap:round;stroke-miterlimit:10;}
	.st7{fill:#EBB187;}
	.st8{fill:#4D6AB1;stroke:#000000;stroke-width:1.5;stroke-linejoin:round;stroke-miterlimit:10;}
	.st9{fill:#F8B067;stroke:#000000;stroke-width:1.5;stroke-linecap:round;stroke-miterlimit:10;}
	.st10{fill:#335A9A;}
	.st11{fill:#FFFFFF;stroke:#000000;stroke-width:1.5;stroke-miterlimit:10;}
	.st12{fill:#57A6DC;}
	.st13{fill:#3D93C4;}
	.st14{fill:#F8C398;}
	.st15{fill:#D8CFB2;stroke:#000000;stroke-width:1.5;stroke-linejoin:round;stroke-miterlimit:10;}
	.st16{fill:#B43417;stroke:#000000;stroke-width:1.5;stroke-linejoin:round;stroke-miterlimit:10;}
	.st17{fill:#FFE9AB;stroke:#000000;stroke-linejoin:round;stroke-miterlimit:10;}
	.st18{fill:#FFE9AB;stroke:#000000;stroke-linecap:round;stroke-linejoin:round;stroke-miterlimit:10;}
	.st19{fill:none;stroke:#000000;stroke-linecap:round;stroke-linejoin:round;stroke-miterlimit:10;}
	.st20{fill:none;stroke:#000000;stroke-width:1.5;stroke-linecap:round;stroke-linejoin:round;stroke-miterlimit:10;}
	.st21{fill:#962D1A;}
	.st22{fill:none;stroke:#000000;stroke-width:0.5;stroke-linejoin:round;stroke-miterlimit:10;stroke-dasharray:2,0.75;}
	.st23{fill:#D8CFB2;}
	.st24{fill:#4D6AB1;stroke:#000000;stroke-width:1.5;stroke-linecap:round;stroke-linejoin:round;stroke-miterlimit:10;}
	.st25{fill:none;stroke:#211C42;stroke-linecap:round;stroke-linejoin:round;stroke-miterlimit:10;}
	.st26{fill:#EF7C44;stroke:#000000;stroke-width:1.5;stroke-linecap:round;stroke-linejoin:round;stroke-miterlimit:10;}
	.st27{fill:#EB7EB0;stroke:#000000;stroke-width:1.5;stroke-linecap:round;stroke-linejoin:round;stroke-miterlimit:10;}
	.st28{fill:#9C9B9B;}
	.st29{fill:#DB6DA5;}
	.st30{fill:none;stroke:#000000;stroke-width:1.5;stroke-linejoin:round;stroke-miterlimit:10;}
	.st31{fill:#D3A789;}
	.st32{fill:#AA7F61;}
</style>
<path class="st0" d="M79,48.1c-1.8,0.8-2.6,4.1-2.6,7.1c0.9,2.4,2.7,3.8,3.7,5.3c2.6,4.1-1.1,5.9-4.5,2.8c-4-3.7-5.2-4.6-5.1-8.9
	c0,0,1.3-6.7,0.8-7.7"/>
<path class="st0" d="M75.5,48.7c-2.3,0.4-4.4,4-5.3,7.3c0.3,2.9,2.2,4.8,2.8,6.7c1.7,5.3-3,6.2-5.8,1.8c-3.4-5.3-4.1-7.4-2.7-12.1"
	/>
<path class="st1" d="M223.4,55.3c0,0,33.6,14.6,43.3,23.4c-3.8,7.8-3.3,16.3,2,24.8c-18.6-8.5-44.5-10.1-44.5-10.1
	S215.7,65.1,223.4,55.3z"/>
<path class="st2" d="M232.6,63.2c-1.8,1.6-2,4.3-2.5,6.6c-0.8,3.7-0.6,6.7-0.5,9.9c0.1,3.3,1,7.6,1.9,10.8"/>
<path class="st2" d="M228.4,60.9c-1.1,1.2-1.9,3.6-2.5,5.2c-1.5,3.8-0.2,14.6,0.6,17.7c0.3,1.2,1.5,5.3,1.7,6.2"/>
<polygon class="st3" points="39.4,73.7 9.8,118.4 57.2,170.6 86.8,125.8 "/>
<path class="st4" d="M131.4,103c0,0,20.6-6.3,42.2-7.2s41.9,7.5,41.9,7.5s-20.3,12.7-40.1,13S145.7,113.8,131.4,103z"/>
<path class="st5" d="M188.1,218.5c-0.4,14.1,0.2,25.9,0.2,29.6c0,6.4,1.6,11.3-5.8,16.2c-3,1.9-5.7,4.1-5.9,6.1
	c-0.2,2.4,3,4.6,10.7,5.1c3.2,0.2,6.4-1.4,9-4.6c1.8-2.3,5.4-2.9,6.1-5.9c2.1-8.4-1.7-33.6,1.2-50.8"/>
<path class="st6" d="M179.2,272.2c-0.1,0.8-0.6,1.7-1.5,2.1c-1.4,0.8-3.2,0.5-3.9-0.9c-1.2-2.1,0.5-4.7,4.3-5.1"/>
<path class="st7" d="M201.9,246.7c0,0-6.6-4.4-12.9,0.6c0-3.6-0.3-9-0.3-9s3.5,1.2,6.2,1.1c2.8-0.1,6.6-2.1,6.6-2.1L201.9,246.7z"/>
<path class="st7" d="M174.4,271.5c0,0,1.1,2,4.1,0.7c-0.2,1.6-1.9,2.3-2.8,1.9C174.7,273.8,174.1,272.6,174.4,271.5z"/>
<path class="st6" d="M182.1,275.5c-0.9,1.3-2.6,1.7-3.9,0.9c-1.2-0.8-1.5-2.6-0.6-3.9c0.5-0.8,1.4-1.3,2.3-1.3"/>
<path class="st7" d="M177.9,273.7c0,0,1.1,2,4,0.7c-0.2,1.6-1.9,2.3-2.8,1.9C178.2,275.9,177.6,274.8,177.9,273.7z"/>
<path class="st6" d="M185.4,275.6c-0.6,1.3-2.1,2-3.3,1.4c-1.3-0.5-1.8-2.1-1.2-3.4c0.4-0.8,1-1.4,1.8-1.6"/>
<path class="st7" d="M181.4,274.3c0,0,1.1,1.9,4,0.7c-0.2,1.4-1.8,2.1-2.7,1.7C181.7,276.3,181.1,275.3,181.4,274.3z"/>
<circle class="st5" cx="173.4" cy="93.7" r="33.4"/>
<path class="st6" d="M153.5,221.2c0.4,14.1,1.6,25.8,1.8,29.5c0.4,6.4-3.1,7.4-11.2,9.8c-8.9,2.6-5.8,9.9,4.5,9.9
	c1.6,0,7.1-1.2,9.3-0.6c4.4,1.2,10.2,0.6,11.3-4.2c1.8-8.1-2.5-32.3-0.7-49.7"/>
<path class="st7" d="M141.3,88.1c0,0,8.8,7.3,32.1,6.9c23.3-0.4,32.3-5.2,32.3-5.2s-0.8-7.2-3.7-11.2c-9.1-0.4-29.5,0-34.4,0.3
	c-4.9,0.3-19.5-0.7-22.4-1C142.7,81,141.3,88.1,141.3,88.1z"/>
<path class="st7" d="M167.9,241.1c0,0-9.3,0.4-12.2,3.6c-0.1-3-1-12-1-12l12.7-4.9C167.4,227.8,167.6,238.7,167.9,241.1z"/>
<path class="st8" d="M215.5,103.4c-2.1,3.1-12.8,15.7-14.2,18c3.1,9.5,11.4,24.2,18.3,36.3c6.2,10.9,10.2,26.8,14.8,38.2
	c10.1,25,19.7,34.2,25.7,39.2c-7.8,2.9-16.6,5-24.1,1.5c-6.1-2.8-11.2-9.1-17.9-8.5c-6.2,0.6-10.1,6.9-15.5,10
	c-4.2,2.4-9.5,2.8-14,1.1c-6.7-2.6-12-9.6-19.2-9.2c-8.6,0.4-14.2,11.2-22.8,10.8c-7.5-0.3-12-8.9-19.1-11.1
	c-7.1-2.1-11.9,2.6-18.1,4.6c2.3-22.3,14.4-34,16.2-54.5c1.7-18.2,14.2-43.5,20.6-57.3c-3.1-4.4-13.8-17.2-14.7-19.4
	C139.5,108.8,193.9,112.2,215.5,103.4z"/>
<path class="st9" d="M140.8,266.1c-1.4,0.5-2.9-0.2-3.3-1.5c-0.4-1.3,0.3-2.7,1.7-3.2c0.8-0.3,2.1,0.2,2.9,0.1"/>
<path class="st10" d="M133.4,218.5c1.8-3.9,4.8-7.1,6.9-10.8c4-7.3,3.9-16.1,3.1-24.4c-0.2-1.9-0.4-3.7-0.2-5.6
	c0.2-2,0.7-3.9,1.3-5.9c0.9-2.9,1.9-6,4.2-8c-1.5,4.3-0.7,9.1,1,13.4c1.7,4.2,4.3,8.1,6.5,12.1c2.2,4,4.1,8.3,4.2,12.9
	c0.1,3.5-0.8,6.9-1.3,10.4c-0.9,6.7-0.3,13.1,2.2,19.4c-2.8,1.8-9.5,8.8-15.7,7.7c-5.5-0.9-10.3-6.7-14.4-9.2
	C130.7,226.2,131.7,222.3,133.4,218.5z"/>
<ellipse class="st11" cx="158" cy="87" rx="7.9" ry="3.5"/>
<ellipse class="st11" cx="181" cy="87" rx="7.9" ry="3.5"/>
<circle cx="154.8" cy="87" r="1.7"/>
<circle cx="178.7" cy="87" r="1.7"/>
<path class="st9" d="M141.5,265.5c-0.3,0.7-0.9,1.3-1.7,1.6c-1.4,0.5-2.9,0-3.3-1.2c-0.4-1.2,0.3-2.6,1.7-3.1
	c0.8-0.3,1.9,0.4,2.9,0.3"/>
<path class="st9" d="M142.2,269.2c-0.6,0.7-1.6,1.2-2.8,1.3c-2,0.1-3.6-1.2-3.6-2.8c0-2.6,2-3.9,7.5-1.9"/>
<polygon class="st12" points="182.8,181.8 182.6,187.3 185.8,182.8 191,186.6 187.7,180.9 192.7,178.8 187.1,178.6 185.2,172.7 
	183.9,178.3 178.6,176.5 "/>
<polygon class="st12" points="157.4,200.8 151.9,203.9 157.8,203.7 156.7,209.6 160.4,204.3 164.2,209.6 162.5,202.6 167.7,198 
	162,200.3 158.3,193.9 "/>
<polygon class="st12" points="140.5,176.9 135.3,177.6 140.5,179.1 138.9,183.8 143.1,179.8 146.9,183.7 144.7,177.5 148.9,174.7 
	143.6,174.7 140.9,169.9 "/>
<path class="st10" d="M222.1,200.1c1.2-17.8-1.5-33.4-6.1-47c3.8,6.1,7.9,15.4,9.3,19.5c2.1,6,3.1,9.5,5.2,15.5
	c1.6,4.6,3.5,9.7,5.6,14.1c5.9,12,11.9,24.1,22.3,32.5c-5.3,1.8-10.3,3.4-16.8,2.6c-3.8-0.5-7.7-2.6-11-4.9
	C228.2,228.2,221.2,213.5,222.1,200.1z"/>
<polygon class="st12" points="124.6,217.8 124.4,223.2 127.6,218.7 132.8,222.6 129.5,216.9 134.5,214.7 129,214.5 127,208.6 
	125.7,214.2 120.4,212.5 "/>
<polygon class="st13" points="233.4,217.5 228,217.9 232.6,220.7 229.9,224.8 234.9,222 238.9,225.7 237.1,220.2 241.8,218.5 
	236.7,217.2 235.3,211.9 "/>
<path class="st7" d="M189,275c0,0-0.1-0.9-0.8-1.5c2.7,1.7,6.5-4.1,7.3-5.6c1.1-2.1,2.4-0.6,4.5-2.5c2.1-1.9,2-4.7,2-4.7
	s0.4,4.6-1.5,6c-1.9,1.4-2.5,1.5-3.7,2.6c-1.2,1.1-2.4,2.8-3.9,3.8C191.5,274,189,275,189,275z"/>
<path class="st10" d="M200.7,121.2c0,0,5.7,14.8,7.9,31.1c1.4,10.4,0.9,21.5-1.9,29.5c-1.1-12.3-10.5-20.3-15.1-29.9
	c-6.8-14.4-9.3-28.4-12.4-27.4c-3,0.9-13.2,20.6-7.2,33c7.7,15.8,6.7,36.6-2.6,43c3-24.3-16.6-30.6-11.6-56.5
	c1.9-9.5-10.5-3.8-19.6,4.5c-1.9,1.7-2.8,3.4-2.9,0c1.6-3.8,10-22.9,11.7-25.8c-4-5.6-12.7-16.8-12.7-16.8s4.9,2.3,9.8,3.2
	c6.2,1.2,12.8,2,20.6,2.4c4.8,0.3,19.6-0.1,27.3-0.8c12.3-1.3,21.2-5.3,21.2-5.3S202,119.1,200.7,121.2z"/>
<path class="st7" d="M168.8,259.7c0,0-0.8,6.3-4.9,7.7c-3.3,1.1-4.2-1.2-7.8-0.8c-3.5,0.4-3.9,2.5-8.6,2.4c-4-0.1-5.2-1.6-5.2-1.6
	s-2.8,2.9-5.7,0.6c-0.2,0.9,2.5,3.9,5.7,0.9c1.2,0.7,3.9,2,10.6,0.8c5.9-1,4.7,0.5,9.6,0.2c4.9-0.3,5.6-3.3,5.7-3.8
	C168.5,265.2,168.9,261.4,168.8,259.7z"/>
<path class="st6" d="M189.4,274.9c0,0.7-0.3,1.4-1,1.9c-1.1,0.8-2.5,0.7-3.3-0.3c-0.8-1-0.5-2.4,0.5-3.3c0.6-0.5,1.4-0.6,2.1-0.5"/>
<path class="st7" d="M185.5,274.7c0,0,0.8,1.7,3,0.6c-0.2,1.3-1.4,2-2,1.6C185.8,276.6,185.3,275.7,185.5,274.7z"/>
<path class="st13" d="M158.3,193.9l-0.8,6.8l-5.6,3.2l5.9-0.3l-1,5.9l3.7-5.3C160.4,204.3,160.1,196.9,158.3,193.9z"/>
<path class="st13" d="M143.1,179.8l3.8,3.9l-2.1-6.2l4.2-2.8l-5.3,0C143.6,174.7,143.1,177.1,143.1,179.8z"/>
<path class="st10" d="M206.7,212.9c-0.7-1.7-1.3-3.5-1.8-5.3c-1.4-5-2.1-10-2.7-15.2c-1-8.9-6.1-19.4-6.8-20.7
	c0.4,0.8,3.7,17.7-1.3,26.5c-2.8,4.9-7,13.8-7.5,19.4c-0.5,5.7-1.1,12.4-6.7,15.2c2.7,2,6.1,4.4,9.2,5.6c5.4,2.2,9.5,1.2,14.5-1.9
	c1.9-1.2,3.7-3,5.3-4.5c1.5-1.4,2.6-2.4,4.5-3.2c0-2-4-10.4-5.2-12.8C207.5,215,207.1,214,206.7,212.9z"/>
<path class="st12" d="M202.7,198.4l-6.2-0.3l5,3.6l-2,4.7l4-2.8l2.9,4.5l-0.4-4.7l5.3-2.4c0,0-5.9-1.1-5.9-1.3
	c0.1-0.2,0.8-6.6,0.8-6.6L202.7,198.4z"/>
<path class="st13" d="M202.7,198.4l-6.2-0.3l5,3.6l-2,4.7l4-2.8C203.6,203.6,202.8,200.8,202.7,198.4z"/>
<polygon class="st12" points="185,225.8 189.4,230.3 186.7,224.4 192.2,222.3 186,221.2 186.3,214.7 183.2,221.3 178.2,218.6 
	182.1,223.3 178.7,229.1 "/>
<path class="st13" d="M185,225.8l4.5,4.6l-2.7-6l5.4-2.1l-6.1-1.1C186,221.2,185.8,224.4,185,225.8z"/>
<polygon class="st13" points="158.1,141.2 162.8,145.6 159.8,139.8 165.2,137.5 159,136.6 159.1,130.1 156.2,136.9 151.1,134.3 
	155.2,138.9 152,144.8 "/>
<path class="st12" d="M170.6,152.9l-5.5-1.9l3.5,4.6l-3.1,3.7l4.4-1.5l1.4,4.8l1-4.4l5.5-0.7c0,0-5-2.6-4.9-2.7
	c0.1-0.2,2.6-5.8,2.6-5.8L170.6,152.9z"/>
<path class="st13" d="M170.6,152.9l-5.5-1.9l3.5,4.6l-3.1,3.7l4.4-1.5l1.4,4.8l1-4.4C172.3,158.3,170.9,155.7,170.6,152.9z"/>
<path class="st12" d="M155.2,138.9l-3.2,5.9l5.9-3.3l-0.1-0.3c-0.2-0.5-0.5-1-1-1.3c-0.1-0.1-0.3-0.2-0.4-0.3
	c-0.1-0.1-0.2-0.1-0.3-0.2L155.2,138.9z"/>
<polygon class="st13" points="187.3,141.8 190.8,147.4 189.8,140.9 196,142 190.1,138 194,134.1 188.4,135.8 184.4,132.1 186,138.5 
	181.3,142.6 "/>
<path class="st12" d="M186,138.5l-4.7,4.1l6-0.9C187.3,141.8,186.8,140.2,186,138.5z"/>
<polygon class="st12" points="208.2,164.6 206.4,169.4 210.8,166 216.2,168.5 213.4,163.7 216.5,159.7 211.2,160.2 209,155.8 
	208.5,161 203.7,163 "/>
<path class="st10" d="M130.2,202.1c2.3-3.9,4.6-8,4.9-12.6c0.4-6.5-0.9-13.7-1.3-20.2c-0.6-9,3.5-20.3,10.6-26c1.6-1.3-9.8,7-9.3,5
	c-4.5,11-7.8,20.6-8.8,31.1c-0.6,6.1-1.8,10.3-3.4,15.3c-2.1,6.4-5,12.3-7.4,18.7c-2.4,6.5-4.6,11.8-5.3,19.9c0,0.1,6-3.5,11.8-4.8
	c0.7-3.8,0.7-12.2,2.3-15.9C125.8,209.1,128.1,205.7,130.2,202.1z"/>
<path class="st13" d="M209,155.8l-0.5,5.2l-4.8,2l4.5,1.6l-1.8,4.8l2.9-2.2C209.3,167.1,209.5,160.3,209,155.8z"/>
<path class="st6" d="M166,87c0,0-1.2,11.2-9,14.7c-0.7,0.3-0.7,1.3,0,1.7c6.2,2.8,13.3-0.1,13.3-0.1"/>
<path class="st14" d="M166.4,88.7c0,0,3.3,6.9,12.7,6.1c-1,2.1-11.6,2.3-11.6,2.3L166.4,88.7z"/>
<path class="st7" d="M157.2,102.6c0,0,9,1.1,11.9-1.9c2.4-2.5,4.2,0.9,1.3,1.9C167.6,103.6,162.4,105,157.2,102.6z"/>
<polygon class="st15" points="42.7,75.2 12.7,119.5 57.5,169.4 90.1,124.1 49.4,75.7 48,77.3 45.9,74.8 44.3,77 "/>
<path class="st1" d="M15.8,121c0,0,28.2-20.9,39.1-43.1l22.7,25.5L15.8,121z"/>
<path class="st1" d="M19.4,121c0,0,41.2-25.3,47.1-35.3l45,50l-0.6,0.7c-3.9,4.5-8.3,8.5-13.3,11.8l-31,20.5L19.4,121z"/>
<polygon class="st16" points="116.6,148.6 68.9,173.3 57.2,171.1 10,118.6 21.8,120.8 69.4,96.1 "/>
<path class="st17" d="M115.7,87.1"/>
<path class="st18" d="M14.3,119.4c0,0,14.7-17.8,18.7-24"/>
<path class="st19" d="M48.7,76.2C44,88,37.8,95,30.2,104.3"/>
<path class="st1" d="M228.8,159.1c0,0,22.3,18.8,31.6,11.5c0,0-2.9,11.4-13.9,16.4c-8.7,4-26.9,1.5-37.2-9.1
	C224.6,172.3,228.8,159.1,228.8,159.1z"/>
<path class="st20" d="M211.9,180.2c0,0,16.6,14.2,28.4-1.9c9.9,13.6,15.6,0.8,17.4-1.7"/>
<polygon class="st21" points="22,121.8 68.6,172.6 57.7,170.6 11.8,119.5 "/>
<line class="st19" x1="33.8" y1="130.1" x2="57.3" y2="155.8"/>
<path class="st22" d="M262.4,78.7c-1.4,2.4-2.2,5.7-2.3,9.1c-0.1,3.4,0.5,6.8,1.7,9.5c0-0.1-0.1-0.3-0.1-0.4"/>
<path class="st2" d="M259.6,78c-2.4,2.7-3.7,11.5-1.4,18"/>
<path class="st22" d="M256.7,76.3c-1.4,1.8-2.4,4.7-2.8,8.1c-0.4,3.3,0.2,7.3,0.8,10.6"/>
<path class="st2" d="M253.7,74.6c-1.6,2-3.8,8.5-2.2,19.4"/>
<path class="st22" d="M251,72.6c-2.8,2.7-4.2,14.4-2.8,20.5"/>
<path class="st2" d="M247.6,70.9c-2.9,3.5-5,15.6-3,21.3"/>
<path class="st2" d="M247.9,71.3"/>
<path class="st2" d="M240.9,67.2c-2.1,2.7-3.9,17.1-1.4,24.2"/>
<path class="st22" d="M236.7,65.9c-4.1,5.4-3.4,19.7-1.2,24.5"/>
<path class="st2" d="M240.3,187.7c4.2-1.8,10.5-7.3,12.6-13.1"/>
<path class="st2" d="M237.2,187.7c4.2-1.8,10.5-7.3,12.6-13.1"/>
<path class="st2" d="M232.1,186.6c4.2-1.8,10.5-7.3,12.6-13.1"/>
<path class="st22" d="M234.6,187c4.2-1.8,10.5-7.3,12.6-13.1"/>
<path class="st22" d="M229.4,185.8c4.2-1.8,10.5-7.3,12.6-13.1"/>
<path class="st2" d="M221.9,180.7c4.2-1.8,10.5-7.3,12.6-13.1"/>
<path class="st22" d="M227.1,184.3c4.2-1.8,10.5-7.3,12.6-13.1"/>
<path class="st23" d="M248.9,184.8c0,0-3.3,1.6-8.6-5.6c-1.8,2.6-7.6,8.1-15.6,7.2c2.9,0.7,8.9,2.7,15.8,1.6
	C246,187.3,248.9,184.8,248.9,184.8z"/>
<path class="st22" d="M219.6,179.5c4.2-1.8,10.5-7.3,12.6-13.1"/>
<line class="st19" x1="62.6" y1="161.5" x2="65.5" y2="164.9"/>
<path class="st24" d="M88.2,39.2c0.2-0.1,37.6-33.2,72.9-20.4c20.7,7.5,33.4,26.4,39.1,45.7c5.3,3.6,14.5,7.5,25.6,7.1
	c-27.4,18.7-81.2,1-105.1,13.6c7-12.1,10.1-13.6,20-18.1c0.3-6-0.1-20.4-12.6-26.3c-10.4-4.9-33.2,4.9-37.9,12.7
	c-0.5,4.4-3.9,7.5-9.4,8.4c-4.4,0.7-7.1-0.7-10,3c-3.1,3.9-7.4,1.6-6.4-2.9c0.8-3.7,5.4-5.6,8.9-6.2c3.5-0.7,2.1-3.5,0.7-4.5
	c-1.9-1.3-6.4-0.7-9.4,1.1c-1.8,2.3-2.9,5.3-5.8,7.3c-4.8,3.3-7.2-2-4.6-4.8c4.4-4.5,5.1-8.1,8.2-9.4C66.7,43.9,78.6,43.6,88.2,39.2
	"/>
<path class="st12" d="M184.2,57.7l5.1-2.9l-2.3,5.1l4.2,2.8l-5-0.5l-0.1,4.8l-2.2-4l-5.8,0.5c0,0,4.5-3.5,4.3-3.6
	c-0.2-0.1-4.2-5-4.2-5L184.2,57.7z"/>
<path class="st12" d="M150.5,48.6l5.6,1.5l-5.2,2l1,4.9l-3.1-3.8l-3.4,3.4l1.2-4.3l-4.4-3.7c0,0,5.6,0.6,5.5,0.4
	c0-0.2,0.4-6.4,0.4-6.4L150.5,48.6z"/>
<polygon class="st12" points="132,22 135.8,18 135,23.4 139.9,23.9 134.5,26 134.8,31.5 131.8,26.5 127.4,29.1 129.7,24.3 
	126.5,19.8 "/>
<polygon class="st12" points="172.3,39.8 169.7,44.1 170.7,39 166.2,38.4 170.7,36.5 169.3,31.5 172.9,36.1 176.3,33.1 174.1,37.4 
	177.7,41.3 "/>
<g>
	<path class="st1" d="M152.4,20.9c0,0,20.9-0.6,35-18c5.6,2.7,11,10.1,9.5,15.4C190.7,26,155,33.2,155,33.2S158.4,27.5,152.4,20.9z"
		/>
	<path class="st15" d="M147.4,27.4c0,0,26.6,3.6,49.4-9.1c-4.8,5.7-22,12.6-41.4,14.8C150.6,33.4,147.4,27.4,147.4,27.4z"/>
	<path class="st22" d="M176,15.9c2.9,1.7,5.6,5.2,5.3,8.7"/>
	<path class="st2" d="M178.3,14.5c3,1.5,6,4.5,5.4,9.4"/>
	<path class="st22" d="M180.9,13c1.7,1.1,6.1,6.1,5,10.2"/>
	<path class="st2" d="M182.8,11.4c0.6,0.2,4.2,3.4,5.3,6.9c0.6,2,0.7,3.9,0.5,4.1"/>
	<path class="st22" d="M184.6,10.1c3.2,1.7,5.6,4.6,6.6,7.7c0.4,1.2,0.4,2.1,0.3,3.3"/>
	<path class="st2" d="M188.9,8.8c-0.1-0.1-0.2-0.2-0.3-0.3c3.4,2.3,6.5,7.1,5.3,11.4"/>
</g>
<path class="st25" d="M37.8,62"/>
<g>
	<polygon class="st26" points="56.8,71.7 69.8,17 79,19.3 65.9,74 57.6,88.2 	"/>
	<path class="st27" d="M77.5,25.7l-9.2-2.2l1.6-6.4l0,0c3.3,0,5.6,0.6,9.1,2.3v0L77.5,25.7z"/>
	<line class="st20" x1="59.6" y1="72.4" x2="69.5" y2="30.3"/>
	<line class="st20" x1="73" y1="31.2" x2="63" y2="73.2"/>
	<line class="st20" x1="76" y1="31.5" x2="66.8" y2="29.3"/>
	
		<rect x="68.2" y="25.2" transform="matrix(-0.9713 -0.238 0.238 -0.9713 135.6876 71.3844)" class="st28" width="7.9" height="4.6"/>
	<ellipse transform="matrix(0.2347 -0.9721 0.9721 0.2347 27.9419 87.7905)" cx="69.7" cy="26.1" rx="0.6" ry="0.6"/>
	<ellipse transform="matrix(0.2347 -0.9721 0.9721 0.2347 29.3117 90.7773)" cx="72.3" cy="26.8" rx="0.6" ry="0.6"/>
	<ellipse transform="matrix(0.2347 -0.9721 0.9721 0.2347 30.6689 93.7367)" cx="74.9" cy="27.4" rx="0.6" ry="0.6"/>
	<path class="st29" d="M74.3,24.1c0,0,4.2-2.3-1.4-6.2c2.4,0.3,5.5,1.6,5.5,1.6L77,24.9L74.3,24.1z"/>
	<polygon class="st30" points="56.8,71.7 57.6,88.2 65.9,74 	"/>
	<polygon class="st31" points="57.3,72.5 64.8,74.2 58.2,85.5 	"/>
	<polygon class="st32" points="58.1,84.3 62.2,73.7 64.9,74.3 58.3,85.6 	"/>
	<polygon points="61,82.5 57.3,81.8 57.8,86.9 	"/>
</g>
<path class="st24" d="M74.2,62.8c-1.3,0.3-2.6,0.9-3.8,2.5c-3.1,3.9-7.4,1.6-6.4-2.9c0.8-3.7,5.4-5.6,8.9-6.2"/>
<path class="st10" d="M141.2,67.5c0,0-5,1.6-10.8,6.1c-2.6,2-5.6,5.6-7.8,9.8c3.8-4.1,11.2-9.6,20.4-11.9
	c10.1-2.5,21.5-1.1,26.3-1.7c-5.9-0.8-20.2-19.8-23.8-24.3s-13.1-14.3-28.3-11.3c-10.6,2-23.7,14.2-30.5,15.7c0.3,3,0.6,3.1-2,7.2
	c-1.9,3.1-7.7,1.4-11.6,2.9c-4.4,1.7-3.8,4.8-8.1,5.7c1.3,1.1,2.5,2.3,6.5-2.2c1-1.1,4.7-1.5,9-1.9c9.2-0.8,8.9-8.6,8.8-8.1
	c4.9-7.1,22.6-15.1,32.2-14.6c9.2,0.5,13.9,6.7,16,9.8C139.6,51.7,141.6,56.7,141.2,67.5z"/>
<path class="st13" d="M147.8,48.3c-0.1-0.2-5.6,0.3-5.6,0.3l4.4,3.7l-1.2,4.3l3.4-3.4L152,57l-1-4.9C151,52.1,148.5,49.1,147.8,48.3
	z"/>
</svg>
