<?xml version="1.0" encoding="utf-8"?>
<!-- Generator: Adobe Illustrator 20.1.0, SVG Export Plug-In . SVG Version: 6.00 Build 0)  -->
<svg version="1.1" id="Layer_1" xmlns="http://www.w3.org/2000/svg" xmlns:xlink="http://www.w3.org/1999/xlink" x="0px" y="0px"
	 viewBox="0 0 288 360" style="enable-background:new 0 0 288 360;" xml:space="preserve">
<style type="text/css">
	.st0{fill:#203C66;stroke:#000000;stroke-width:1.5;stroke-linejoin:round;stroke-miterlimit:10;}
	.st1{fill:#F8C398;stroke:#000000;stroke-width:1.5;stroke-miterlimit:10;}
	.st2{fill:#F8C398;stroke:#000000;stroke-width:1.5;stroke-linecap:round;stroke-miterlimit:10;}
	.st3{fill:#EBB187;}
	.st4{fill:#4D6AB1;stroke:#000000;stroke-width:1.5;stroke-linejoin:round;stroke-miterlimit:10;}
	.st5{fill:#F8B067;stroke:#000000;stroke-width:1.5;stroke-linecap:round;stroke-miterlimit:10;}
	.st6{fill:#335A9A;}
	.st7{fill:#FFFFFF;stroke:#000000;stroke-width:1.5;stroke-miterlimit:10;}
	.st8{fill:#57A6DC;}
	.st9{fill:#3D93C4;}
	.st10{fill:#F8C398;}
	.st11{fill:#FFE9AB;stroke:#000000;stroke-linejoin:round;stroke-miterlimit:10;}
	.st12{fill:none;stroke:#000000;stroke-width:0.5;stroke-linejoin:round;stroke-miterlimit:10;stroke-dasharray:3,0.75;}
	.st13{fill:#4D6AB1;stroke:#000000;stroke-width:1.5;stroke-linecap:round;stroke-linejoin:round;stroke-miterlimit:10;}
	.st14{fill:none;stroke:#211C42;stroke-linecap:round;stroke-linejoin:round;stroke-miterlimit:10;}
</style>
<path class="st0" d="M99.5,167c0,0,20.6-6.3,42.2-7.2c21.7-0.9,41.9,7.5,41.9,7.5s-20.3,12.7-40.1,13S113.8,177.8,99.5,167z"/>
<path class="st1" d="M156.1,282.4c-0.4,14.1,0.2,25.9,0.2,29.6c0,6.4,1.6,11.3-5.8,16.2c-3,1.9-5.7,4.1-5.9,6.1
	c-0.2,2.4,3,4.6,10.7,5.1c3.2,0.2,6.4-1.4,9-4.6c1.8-2.3,5.4-2.9,6.1-5.9c2.1-8.4-1.7-33.6,1.2-50.8"/>
<path class="st2" d="M147.2,336.1c-0.1,0.8-0.6,1.7-1.5,2.1c-1.4,0.8-3.2,0.5-3.9-0.9c-1.2-2.1,0.5-4.7,4.3-5.1"/>
<path class="st3" d="M169.9,310.6c0,0-6.6-4.4-12.9,0.6c0-3.6-0.3-9-0.3-9s3.5,1.2,6.2,1.1c2.8-0.1,6.6-2.1,6.6-2.1L169.9,310.6z"/>
<path class="st3" d="M142.4,335.5c0,0,1.1,2,4.1,0.7c-0.2,1.6-1.9,2.3-2.8,1.9C142.8,337.7,142.2,336.6,142.4,335.5z"/>
<path class="st2" d="M150.1,339.4c-0.9,1.3-2.6,1.7-3.9,0.9c-1.2-0.8-1.5-2.6-0.6-3.9c0.5-0.8,1.4-1.3,2.3-1.3"/>
<path class="st3" d="M145.9,337.6c0,0,1.1,2,4,0.7c-0.2,1.6-1.9,2.3-2.8,1.9C146.2,339.9,145.6,338.7,145.9,337.6z"/>
<path class="st2" d="M153.4,339.5c-0.6,1.3-2.1,2-3.3,1.4c-1.3-0.5-1.8-2.1-1.2-3.4c0.4-0.8,1-1.4,1.8-1.6"/>
<path class="st3" d="M149.4,338.2c0,0,1.1,1.9,4,0.7c-0.2,1.4-1.8,2.1-2.7,1.7C149.8,340.3,149.2,339.2,149.4,338.2z"/>
<circle class="st1" cx="141.4" cy="157.7" r="33.4"/>
<path class="st2" d="M121.5,285.2c0.4,14.1,1.6,25.8,1.8,29.5c0.4,6.4-3.1,7.4-11.2,9.8c-8.9,2.6-5.8,9.9,4.5,9.9
	c1.6,0,7.1-1.2,9.3-0.6c4.4,1.2,10.2,0.6,11.3-4.2c1.8-8.1-2.5-32.3-0.7-49.7"/>
<path class="st3" d="M109.3,152.1c0,0,8.8,7.3,32.1,6.9c23.3-0.4,32.3-5.2,32.3-5.2s-0.8-7.2-3.7-11.2c-9.1-0.4-29.5,0-34.4,0.3
	c-4.9,0.3-19.5-0.7-22.4-1C110.7,145,109.3,152.1,109.3,152.1z"/>
<path class="st3" d="M135.9,305.1c0,0-9.3,0.4-12.2,3.6c-0.1-3-1-12-1-12l12.7-4.9C135.4,291.7,135.6,302.6,135.9,305.1z"/>
<path class="st4" d="M183.6,167.3c-2.1,3.1-12.8,15.7-14.2,18c3.1,9.5,11.4,24.2,18.3,36.3c6.2,10.9,10.2,26.8,14.8,38.2
	c10.1,25,19.7,34.2,25.7,39.2c-7.8,2.9-16.6,5-24.1,1.5c-6.1-2.8-11.2-9.1-17.9-8.5c-6.2,0.6-10.1,6.9-15.5,10
	c-4.2,2.4-9.5,2.8-14,1.1c-6.7-2.6-12-9.6-19.2-9.2c-8.6,0.4-14.2,11.2-22.8,10.8c-7.5-0.3-12-8.9-19.1-11.1
	c-7.1-2.1-11.9,2.6-18.1,4.6c2.3-22.3,14.4-34,16.2-54.5c1.7-18.2,14.2-43.5,20.6-57.3c-3.1-4.4-13.8-17.2-14.7-19.4
	C107.5,172.8,161.9,176.2,183.6,167.3z"/>
<path class="st5" d="M108.9,330.1c-1.4,0.5-2.9-0.2-3.3-1.5c-0.4-1.3,0.3-2.7,1.7-3.2c0.8-0.3,2.1,0.2,2.9,0.1"/>
<path class="st6" d="M101.4,282.5c1.8-3.9,4.8-7.1,6.9-10.8c4-7.3,3.9-16.1,3.1-24.4c-0.2-1.9-0.4-3.7-0.2-5.6
	c0.2-2,0.7-3.9,1.3-5.9c0.9-2.9,1.9-6,4.2-8c-1.5,4.3-0.7,9.1,1,13.4c1.7,4.2,4.3,8.1,6.5,12.1c2.2,4,4.1,8.3,4.2,12.9
	c0.1,3.5-0.8,6.9-1.3,10.4c-0.9,6.7-0.3,13.1,2.2,19.4c-2.8,1.8-9.5,8.8-15.7,7.7c-5.5-0.9-10.3-6.7-14.4-9.2
	C98.7,290.1,99.7,286.3,101.4,282.5z"/>
<ellipse class="st7" cx="126.1" cy="151" rx="7.9" ry="3.5"/>
<ellipse class="st7" cx="149.1" cy="151" rx="7.9" ry="3.5"/>
<circle cx="125.9" cy="151" r="1.7"/>
<circle cx="149.1" cy="151" r="1.7"/>
<path class="st5" d="M109.5,329.5c-0.3,0.7-0.9,1.3-1.7,1.6c-1.4,0.5-2.9,0-3.3-1.2s0.3-2.6,1.7-3.1c0.8-0.3,1.9,0.4,2.9,0.3"/>
<path class="st5" d="M110.2,333.2c-0.6,0.7-1.6,1.2-2.8,1.3c-2,0.1-3.6-1.2-3.6-2.8c0-2.6,2-3.9,7.5-1.9"/>
<polygon class="st8" points="150.8,245.8 150.6,251.2 153.8,246.8 159,250.6 155.7,244.9 160.7,242.8 155.2,242.5 153.2,236.7 
	151.9,242.2 146.6,240.5 "/>
<polygon class="st8" points="125.5,264.7 119.9,267.9 125.8,267.6 124.8,273.6 128.5,268.3 132.2,273.5 130.6,266.6 135.7,262 
	130.1,264.3 126.3,257.9 "/>
<polygon class="st8" points="108.5,240.8 103.4,241.6 108.6,243.1 107,247.8 111.1,243.8 114.9,247.7 112.8,241.5 116.9,238.7 
	111.7,238.7 109,233.9 "/>
<path class="st6" d="M190.1,264.1c1.2-17.8-1.5-33.4-6.1-47c3.8,6.1,7.9,15.4,9.3,19.5c2.1,6,3.1,9.5,5.2,15.5
	c1.6,4.6,3.5,9.7,5.6,14.1c5.9,12,11.9,24.1,22.3,32.5c-5.3,1.8-10.3,3.4-16.8,2.6c-3.8-0.5-7.7-2.6-11-4.9
	C196.3,292.2,189.2,277.5,190.1,264.1z"/>
<polygon class="st8" points="92.6,281.7 92.5,287.2 95.6,282.7 100.8,286.5 97.5,280.9 102.6,278.7 97,278.5 95.1,272.6 93.8,278.2 
	88.4,276.4 "/>
<polygon class="st9" points="201.5,281.5 196,281.9 200.7,284.7 197.9,288.8 203,286 207,289.7 205.1,284.2 209.9,282.5 
	204.8,281.2 203.4,275.9 "/>
<path class="st3" d="M157,339c0,0-0.1-0.9-0.8-1.5c2.7,1.7,6.5-4.1,7.3-5.6c1.1-2.1,2.4-0.6,4.5-2.5c2.1-1.9,2-4.7,2-4.7
	s0.4,4.6-1.5,6s-2.5,1.5-3.7,2.6c-1.2,1.1-2.4,2.8-3.9,3.8C159.5,338,157,339,157,339z"/>
<path class="st6" d="M168.7,185.2c0,0,5.7,14.8,7.9,31.1c1.4,10.4,0.9,21.5-1.9,29.5c-1.1-12.3-10.5-20.3-15.1-29.9
	c-6.8-14.4-9.3-28.4-12.4-27.4c-3,0.9-13.2,20.6-7.2,33c7.7,15.8,6.7,36.6-2.6,43c3-24.3-16.6-30.6-11.6-56.5
	c1.9-9.5-10.5-3.8-19.6,4.5c-1.9,1.7-2.8,3.4-2.9,0c1.6-3.8,10-22.9,11.7-25.8c-4-5.6-12.7-16.8-12.7-16.8s4.9,2.3,9.8,3.2
	c6.2,1.2,12.8,2,20.6,2.4c4.8,0.3,19.6-0.1,27.3-0.8c12.3-1.3,21.2-5.3,21.2-5.3S170,183.1,168.7,185.2z"/>
<path class="st3" d="M136.8,323.6c0,0-0.8,6.3-4.9,7.7c-3.3,1.1-4.2-1.2-7.8-0.8s-3.9,2.5-8.6,2.4c-4-0.1-5.2-1.6-5.2-1.6
	s-2.8,2.9-5.7,0.6c-0.2,0.9,2.5,3.9,5.7,0.9c1.2,0.7,3.9,2,10.6,0.8c5.9-1,4.7,0.5,9.6,0.2c4.9-0.3,5.6-3.3,5.7-3.8
	C136.5,329.1,137,325.4,136.8,323.6z"/>
<path class="st2" d="M157.4,338.9c0,0.7-0.3,1.4-1,1.9c-1.1,0.8-2.5,0.7-3.3-0.3c-0.8-1-0.5-2.4,0.5-3.3c0.6-0.5,1.4-0.6,2.1-0.5"/>
<path class="st3" d="M153.6,338.7c0,0,0.8,1.7,3,0.6c-0.2,1.3-1.4,2-2,1.6C153.8,340.6,153.4,339.6,153.6,338.7z"/>
<path class="st9" d="M126.3,257.9l-0.8,6.8l-5.6,3.2l5.9-0.3l-1,5.9l3.7-5.3C128.5,268.3,128.1,260.9,126.3,257.9z"/>
<path class="st9" d="M111.1,243.8l3.8,3.9l-2.1-6.2l4.2-2.8l-5.3,0C111.7,238.7,111.1,241.1,111.1,243.8z"/>
<path class="st6" d="M174.7,276.9c-0.7-1.7-1.3-3.5-1.8-5.3c-1.4-5-2.1-10-2.7-15.2c-1-8.9-6.1-19.4-6.8-20.7
	c0.4,0.8,3.7,17.7-1.3,26.5c-2.8,4.9-7,13.8-7.5,19.4c-0.5,5.7-1.1,12.4-6.7,15.2c2.7,2,6.1,4.4,9.2,5.6c5.4,2.2,9.5,1.2,14.5-1.9
	c1.9-1.2,3.7-3,5.3-4.5c1.5-1.4,2.6-2.4,4.5-3.2c0-2-4-10.4-5.2-12.8C175.6,279,175.1,277.9,174.7,276.9z"/>
<path class="st8" d="M170.8,262.4l-6.2-0.3l5,3.6l-2,4.7l4-2.8l2.9,4.5l-0.4-4.7l5.3-2.4c0,0-5.9-1.1-5.9-1.3
	c0.1-0.2,0.8-6.6,0.8-6.6L170.8,262.4z"/>
<path class="st9" d="M170.8,262.4l-6.2-0.3l5,3.6l-2,4.7l4-2.8C171.7,267.6,170.9,264.8,170.8,262.4z"/>
<polygon class="st8" points="153,289.8 157.5,294.3 154.8,288.4 160.2,286.3 154.1,285.2 154.4,278.6 151.3,285.3 146.2,282.5 
	150.2,287.3 146.7,293.1 "/>
<path class="st9" d="M153,289.8l4.5,4.6l-2.7-6l5.4-2.1l-6.1-1.1C154.1,285.2,153.8,288.4,153,289.8z"/>
<polygon class="st9" points="126.2,205.2 130.8,209.6 127.9,203.7 133.2,201.5 127,200.6 127.1,194 124.2,200.8 119.1,198.3 
	123.2,202.9 120,208.7 "/>
<path class="st8" d="M138.6,216.9l-5.5-1.9l3.5,4.6l-3.1,3.7l4.4-1.5l1.4,4.8l1-4.4l5.5-0.7c0,0-5-2.6-4.9-2.7s2.6-5.8,2.6-5.8
	L138.6,216.9z"/>
<path class="st9" d="M138.6,216.9l-5.5-1.9l3.5,4.6l-3.1,3.7l4.4-1.5l1.4,4.8l1-4.4C140.3,222.2,138.9,219.7,138.6,216.9z"/>
<path class="st8" d="M123.2,202.9l-3.2,5.9l5.9-3.3l-0.1-0.3c-0.2-0.5-0.5-1-1-1.3c-0.1-0.1-0.3-0.2-0.4-0.3
	c-0.1-0.1-0.2-0.1-0.3-0.2L123.2,202.9z"/>
<polygon class="st9" points="155.3,205.7 158.9,211.4 157.9,204.9 164.1,205.9 158.2,202 162.1,198.1 156.5,199.7 152.4,196.1 
	154,202.5 149.4,206.6 "/>
<path class="st8" d="M154,202.5l-4.7,4.1l6-0.9C155.3,205.7,154.8,204.2,154,202.5z"/>
<polygon class="st8" points="176.2,228.5 174.4,233.3 178.8,229.9 184.2,232.5 181.4,227.7 184.6,223.7 179.2,224.2 177.1,219.8 
	176.5,225 171.7,227 "/>
<path class="st6" d="M98.2,266.1c2.3-3.9,4.6-8,4.9-12.6c0.4-6.5-0.9-13.7-1.3-20.2c-0.6-9,3.5-20.3,10.6-26c1.6-1.3-9.8,7-9.3,5
	c-4.5,11-7.8,20.6-8.8,31.1c-0.6,6.1-1.8,10.3-3.4,15.3c-2.1,6.4-5,12.3-7.4,18.7c-2.4,6.5-4.6,11.8-5.3,19.9c0,0.1,6-3.5,11.8-4.8
	c0.7-3.8,0.7-12.2,2.3-15.9C93.8,273.1,96.1,269.6,98.2,266.1z"/>
<path class="st9" d="M177.1,219.8l-0.5,5.2l-4.8,2l4.5,1.6l-1.8,4.8l2.9-2.2C177.3,231.1,177.6,224.3,177.1,219.8z"/>
<path class="st2" d="M134,151c0,0-1.2,11.2-9,14.7c-0.7,0.3-0.7,1.3,0,1.7c6.2,2.8,13.3-0.1,13.3-0.1"/>
<path class="st10" d="M134.5,152.7c0,0,3.3,6.9,12.7,6.1c-1,2.1-11.6,2.3-11.6,2.3L134.5,152.7z"/>
<path class="st3" d="M125.2,166.6c0,0,9,1.1,11.9-1.9c2.4-2.5,4.2,0.9,1.3,1.9C135.6,167.5,130.4,169,125.2,166.6z"/>
<path class="st11" d="M83.8,151"/>
<path class="st12" d="M215.9,135.3"/>
<path class="st13" d="M135.5,54.7c-7.8,6.2-22.9,19.6-6.4,28.1c17.1,8.8,33.4,26.4,39.1,45.7c5.3,3.6,14.5,7.5,25.6,7.1
	c-27.4,18.7-81.2,1-105.1,13.6c7-12.1,10.1-13.6,20-18.1c0.3-6,1.7-19.1-7.4-29.4C91.7,91,92.7,64.4,121,49.4"/>
<path class="st8" d="M152.2,121.7l5.1-2.9l-2.3,5.1l4.2,2.8l-5-0.5l-0.1,4.8l-2.2-4l-5.8,0.5c0,0,4.5-3.5,4.3-3.6
	c-0.2-0.1-4.2-5-4.2-5L152.2,121.7z"/>
<path class="st8" d="M118.6,112.6l5.6,1.5l-5.2,2l1,4.9l-3.1-3.8l-3.4,3.4l1.2-4.3l-4.4-3.7c0,0,5.6,0.6,5.5,0.4
	c0-0.2,0.4-6.4,0.4-6.4L118.6,112.6z"/>
<polygon class="st8" points="105.8,86 109.1,82.5 108.4,87.2 112.7,87.7 107.9,89.5 108.2,94.2 105.5,89.9 101.8,92.1 103.7,88 
	100.9,84.1 "/>
<polygon class="st8" points="137,107.7 134.4,112 135.4,106.9 130.9,106.2 135.4,104.3 134.1,99.3 137.6,104 141,100.9 138.8,105.3 
	142.4,109.1 "/>
<path class="st14" d="M37.8,134"/>
<path class="st6" d="M100.2,99.1c2.8,1.2,10.8,7,13.4,10.3c3.6,4.6,17.9,23.5,23.8,24.3c-4.8,0.6-16.2-0.8-26.3,1.7
	c-9.3,2.3-16.6,7.8-20.4,11.9c2.2-4.2,5.2-7.8,7.8-9.8c5.8-4.5,10.9-5.9,10.9-5.9c0.9-9,0.2-17.1-2.8-23
	C104.3,104.1,101.6,101.2,100.2,99.1z"/>
<path class="st9" d="M115.8,112.3c-0.1-0.2-5.6,0.3-5.6,0.3l4.4,3.7l-1.2,4.3l3.4-3.4l3.1,3.8l-1-4.9
	C119,116.1,116.5,113.1,115.8,112.3z"/>
<path class="st13" d="M119.4,50.8c0,0-1.4-2.9-1.2-6.2c0.2-3.9,1.3-7.4,1-12.1c-0.5-8.2-3.3-18.3-0.7-19.5c4.2-2,4.8,9.8,7.1,14.8
	c-0.2-2.8-0.4-6.2-0.3-10.7c0.1-5.4-0.3-8.4,2.8-8.9c2.4-0.4,2.3,3.7,3,8.3c0.7,5.1,1.1,10.6,1.1,10.6s1.2-4.1,2.3-8.7
	c1.2-5,2.5-9.9,5.5-9.3c2.8,0.6,1.7,5.3,0.5,9.8c-1.1,4.6-2.2,9.1-2.2,9.1s2.7-3.6,5.3-7.6c2.7-4.2,5.2-8.7,7.3-7.1
	c1.9,1.4-0.9,5.8-3.6,10.7c-2.8,5.1-5,9.9-3.6,11.1c2.6,2.3,5.9-2.4,10.1-2.5c4.2,0,6.4,2.9,2.6,4.2c-3.8,1.3-11.2,7-13.7,11.8
	c-2.5,4.8-6.4,6.8-8.3,6.1"/>
<path class="st6" d="M119.4,13.6c0,0-0.4,1.3,0,3.6s2.1,9.9,2.4,12.6s0,10.8-0.5,14.2s1,6.6,1.7,7.8c-2.2-0.3-2.9-0.8-3.7-4.5
	c-0.8-3.6,0.7-9.6,0.7-12.1s-0.8-10-1.2-12.8S117.6,13.3,119.4,13.6z"/>
<path class="st6" d="M128.4,9c0,0-1.2,0.6-1.2,3.6c0,3.4-0.2,11.2,0.6,16.3c-0.8-1.1-1.4-0.9-1.4-0.9s-0.4-7.6-0.4-9.6
	c0-2-0.2-8.1,1.2-9.1C128.1,8.6,128.4,9,128.4,9z"/>
<path class="st6" d="M140.3,10.1c0,0-1.2,0-2.3,2.8c-1.3,3.3-3.3,10.6-4.1,15.8c-0.4-1.3-1.1-1.4-1.1-1.4s2-7.4,2.5-9.4
	c0.5-2,1.8-7.4,3.3-8C140,9.4,140.3,10.1,140.3,10.1z"/>
<path class="st6" d="M149.4,13.9c0,0-2.8,3.8-5.3,7.8c-2.3,3.6-4.3,7.4-4.3,7.8c-0.5-0.8-1-1-1-1s5.8-8.5,6.1-8.9
	S148.1,14.6,149.4,13.9z"/>
<path class="st6" d="M131.9,53.5c0,0,6.6-1.2,9.6-4.4c-1.8,2.7-4.6,5.4-7.1,4.9S131.9,53.5,131.9,53.5z"/>
<polygon class="st8" points="121.5,64.4 117.2,64.6 120.9,66.7 118.2,71.5 122.1,68.6 124.4,64.5 124.1,60.4 "/>
</svg>
