<?xml version="1.0" encoding="utf-8"?>
<!-- Generator: Adobe Illustrator 20.1.0, SVG Export Plug-In . SVG Version: 6.00 Build 0)  -->
<svg version="1.1" id="Layer_1" xmlns="http://www.w3.org/2000/svg" xmlns:xlink="http://www.w3.org/1999/xlink" x="0px" y="0px"
	 viewBox="0 0 288 288" style="enable-background:new 0 0 288 288;" xml:space="preserve">
<style type="text/css">
	.st0{fill:#E1F2F8;stroke:#000000;stroke-width:2;stroke-miterlimit:10;}
	.st1{fill:#FFFFFF;stroke:#C7C6C6;stroke-width:0.5;stroke-miterlimit:10;}
	.st2{fill:#FFFFFF;stroke:#8B8BC3;stroke-width:0.5;stroke-miterlimit:10;}
	.st3{fill:none;stroke:#E73D11;stroke-width:2;stroke-miterlimit:10;}
	.st4{fill:none;stroke:#000000;stroke-miterlimit:10;}
	.st5{fill:#794A98;stroke:#1D122C;stroke-width:2;stroke-linejoin:round;stroke-miterlimit:10;}
	.st6{fill:#865AA1;stroke:#1D122C;stroke-width:2;stroke-linecap:round;stroke-miterlimit:10;}
	.st7{fill:#865AA1;stroke:#1D122C;stroke-width:2;stroke-linecap:round;stroke-linejoin:round;stroke-miterlimit:10;}
	.st8{fill:none;stroke:#EF7B7B;stroke-width:4;stroke-linecap:round;stroke-miterlimit:10;}
	.st9{fill:none;stroke:#000000;stroke-width:0.75;stroke-linecap:round;stroke-miterlimit:10;}
	.st10{fill:#794A98;}
	.st11{fill:#2C509E;stroke:#000000;stroke-width:2;stroke-linejoin:round;stroke-miterlimit:10;}
	.st12{fill:#23437A;}
	.st13{fill:#A078B3;}
	.st14{fill:#704221;stroke:#1D122C;stroke-linejoin:round;stroke-miterlimit:10;}
	.st15{fill:#794A98;stroke:#1D122C;stroke-width:2;stroke-linecap:round;stroke-linejoin:round;stroke-miterlimit:10;}
	.st16{fill:none;stroke:#E0E0E0;stroke-miterlimit:10;}
	.st17{fill:#663E85;}
</style>
<rect x="20.6" y="82.9" transform="matrix(-1 -4.489932e-11 4.489932e-11 -1 173.1479 281.4665)" class="st0" width="131.9" height="115.7"/>
<g>
	<line class="st1" x1="144.7" y1="91.3" x2="144.7" y2="192.7"/>
	<line class="st2" x1="131.5" y1="91.3" x2="131.5" y2="192.7"/>
	<line class="st2" x1="118.6" y1="91.3" x2="118.6" y2="192.7"/>
	<line class="st2" x1="106.4" y1="91.3" x2="106.4" y2="192.7"/>
	<line class="st2" x1="93.2" y1="91.3" x2="93.2" y2="192.7"/>
	<line class="st2" x1="80.3" y1="91.3" x2="80.3" y2="192.7"/>
	<line class="st2" x1="66.7" y1="91.3" x2="66.7" y2="192.7"/>
	<line class="st2" x1="53.5" y1="91.3" x2="53.5" y2="192.7"/>
	<line class="st2" x1="40.6" y1="91.3" x2="40.6" y2="192.7"/>
	<line class="st2" x1="28.3" y1="91.3" x2="28.3" y2="192.7"/>
	<line class="st2" x1="28.3" y1="91.3" x2="144.7" y2="91.3"/>
	<line class="st2" x1="28.3" y1="97.5" x2="144.7" y2="97.5"/>
	<line class="st2" x1="28.3" y1="103.5" x2="144.7" y2="103.5"/>
	<line class="st2" x1="28.3" y1="109.2" x2="144.7" y2="109.2"/>
	<line class="st2" x1="28.3" y1="115.4" x2="144.7" y2="115.4"/>
	<line class="st2" x1="28.3" y1="121.4" x2="144.7" y2="121.4"/>
	<line class="st2" x1="28.3" y1="127.5" x2="144.7" y2="127.5"/>
	<line class="st2" x1="28.3" y1="133.7" x2="144.7" y2="133.7"/>
	<line class="st2" x1="28.3" y1="139.7" x2="144.7" y2="139.7"/>
	<line class="st2" x1="28.3" y1="145.4" x2="144.7" y2="145.4"/>
	<line class="st2" x1="28.3" y1="151.5" x2="144.7" y2="151.5"/>
	<line class="st2" x1="28.3" y1="157.5" x2="144.7" y2="157.5"/>
	<line class="st2" x1="28.3" y1="162.6" x2="144.7" y2="162.6"/>
	<line class="st2" x1="28.3" y1="168.8" x2="144.7" y2="168.8"/>
	<line class="st2" x1="28.3" y1="174.8" x2="144.7" y2="174.8"/>
	<line class="st2" x1="28.3" y1="180.5" x2="144.7" y2="180.5"/>
	<line class="st2" x1="28.3" y1="186.7" x2="144.7" y2="186.7"/>
	<line class="st1" x1="28.3" y1="192.7" x2="144.7" y2="192.7"/>
</g>
<polyline class="st3" points="144.3,192.2 131.5,178.5 106.3,174.2 93.6,151.5 80.3,157.5 66.7,121.4 53.5,133.7 40.6,101 
	28.3,115.4 "/>
<polyline class="st4" points="144.7,91.3 144.7,192.7 28.3,192.7 "/>
<path class="st5" d="M185.3,113.1c8.8,5.6,11.8,18.7,6.3,27.6c-1.1,1.7-2.4,3.4-3.2,5.3c-0.7,1.8-0.8,3.8-1.1,5.7
	c-1,9.4-11,24.4-20.1,28.9c-8.6,4.2-20.6,3.3-31-5.8c-11.5-10.2-13.6-17.7-18.3-19.8c-4.4-1.9-18.6-2.2-14.3-14.8
	c3.4-10.1,20.3-11.7,11,4.7c4.8-9.5,7.7-3.7,17.6,1.3c4.6,2.3,8.9,4.2,13.7,5.2c5.7,1.2,10.5,5.4,12.8,10.7
	c-1.3-5.5-0.7-11.3,1.9-16.5c2.6-5.2,10.4-9.7,8.4-16.3"/>
<path class="st6" d="M171.2,182c-10.6-18.6-28.3-33-35.2-53.7c-5.6-16.8-1.8-36.4,9.8-49.8c11.6-13.4,30.5-20,47.9-16.9
	c9.4,1.7,18.4,6.2,25.1,13c33.1,33.7,14.4,88.1,2.9,126.9c-2.5,8.5-5.1,17.7-2.4,26.2c2.2,6.9,17.1,20.3,25.2,21.2
	c-5.8,6.6-12.4,10.5-15.8,10.7c-10.2,0.6-18.6-10.6-36.8-10.9c-12.1-0.2-16.6,8.2-23.3,11.7c-5.5,2.9-21.5-3.5-22.8-11.4
	c9-3.2,22.5-14.3,28.4-23.2c5.8-8.8,6-20.4,2.9-30.5C175.6,190.7,173.6,186.2,171.2,182z"/>
<path class="st7" d="M225.3,112.3c8.8-5.6,21.9-2.9,27.7,5.9c1.1,1.7,2,3.6,3.4,5.1c1.3,1.4,3.1,2.3,4.7,3.3
	c8.1,4.8,17.6,20.1,17.8,30.2c0.2,9.5-5.6,20-18.3,25.5c-14.1,6.1-25,5.9-30.1,5.8c-18.9-0.4-22.4-10.3-19.7-16.3
	c4.8-10.7,19.7-4.4,19.1,1.2c-0.3,2.5-6.8,3.7-11.2,2.6c4.5,1,11.2,2.4,15.8-0.2c4.5-2.5,6-7.6,8.9-11.5c3.5-4.6,9.3-7.3,15.1-7.1
	c-5.5-1.1-10.6-4.1-14.2-8.5c-3.6-4.5-4.4-13.4-11.3-14.3"/>
<path d="M164.7,109.2l-11.9-11.9v0c-1.6-2.3,1.4-3.8,4-1.9l0,0l11.9,11.9l0,0C169.7,109.4,167.2,110.6,164.7,109.2L164.7,109.2z"/>
<path class="st8" d="M160.9,130c2.5-5.7,7.3-9.7,13-10.1c6.3-0.5,12.1,3.6,15.3,9.8"/>
<path d="M183.8,109.2l11.9-11.9v0c1.6-2.3-1.4-3.8-4-1.9v0l-11.9,11.9l0,0C178.8,109.4,181.3,110.6,183.8,109.2L183.8,109.2z"/>
<path class="st9" d="M160.9,130c2.5-5.7,7.3-9.7,13-10.1c6.3-0.5,12.1,3.6,15.3,9.8"/>
<path class="st6" d="M166.8,75.5c0,0,2.4-33.6,44.7-40.8c-8.2,7.3-12,17.3-13.1,28.5"/>
<path class="st10" d="M190.7,184c15,8.4-2.3,40.5-14.6,49.5c0,0-15.8,9.7-15.2,14.3c0.9,6.8,10.2,4.8,21.5-3.4
	c11.3-8.1,24.8-1.4,34.5,6.2c9.8,7.6,25.1-0.6,25.1-0.6c-3.1,4.6-10.8,9.4-15.2,8.8c-5.9-0.8-19.8-10.8-32.2-11
	c-14.2-0.2-22.3,9.5-22.3,9.5s-6.8,6-16.1,0.8c-4.5-2.4-7.5-5.1-9-8c0,0,12.1-6.4,18.8-12.8c2.5-2.4,15.7-16.1,13.6-33.8
	c-2.1-17.7-15.3-33.8-18.6-37.9C169.3,173.7,175.7,175.6,190.7,184z"/>
<path class="st10" d="M224.7,120.4c0,0,13.5,14.4,24.6,7.6c-2,5.1-3.8,23.8,18.6,27.7c-3.9,2.3-17.7-1.5-23.4-9.4
	c-4.8-6.7-4.6-14.4-11.8-13.2C227.1,134,224.7,120.4,224.7,120.4z"/>
<path class="st10" d="M265.8,177.8c0,0-15.7,4.9-21.3-2.8c-3.5,2.2-10.9,9.1-24.5,6.3c-9-1.8-7.8-8.4-7.8-8.4s-4.5,12.8,16.3,14.1
	C249.3,188.2,264.5,179.3,265.8,177.8z"/>
<path class="st6" d="M231.2,181.6c0,0-1.2-9.4-7.1-8.6c-4.5,0.6,0.1,9.8,0.1,9.8"/>
<path class="st10" d="M229.8,181.7c0,0-5.8-1.2-5.6-7.5c-2.5,0.9,1.4,9.1,2.3,9.8"/>
<path class="st11" d="M222.4,233.1c0,0-17,1-18.6,17.6c-4.4-2.1-15.7-3.8-22.2,0.4c-1.1-5-4.2-13.4-12.4-18.9
	c4.5-6.1,6.9-10.2,8.8-14.8c4.4,1.8,31.9,4.3,40.2,1.6C218.4,227.6,222.4,233.1,222.4,233.1z"/>
<path class="st12" d="M204.9,243.6c0,0-14-6.7-23.8,2c0.6,1.4,1.3,4.1,1.3,4.1s9.3-4.5,20.6-0.3C202.9,249.3,204,244.5,204.9,243.6z
	"/>
<path class="st12" d="M187.8,220.2c0,0-7.9,10.9-14,14.4c-1.7-1.5-3.2-2.7-3.2-2.7s6.5-9.1,8.1-13.5
	C180.3,219,187.8,220.2,187.8,220.2z"/>
<path class="st13" d="M218.1,99.6c-0.5,0.4-1.1,0.7-1.8,0.7c-4.6-0.2-6.3-10.4-9.3-13.2c-4.1-3.8-10.3-3.3-11.3-9.9
	c-0.9-5.7,7.1-6.2,11.3-3.7c6,3.6,12.3,10.1,13.4,17.2c0.4,2.5,0.1,5.1-1.1,7.3C219,98.6,218.6,99.2,218.1,99.6z"/>
<path class="st13" d="M237.3,112.7c2-0.4,4.1,0,5.6,0.8c1.6,0.8,4.5,3.7,2.7,5.6c-0.8,0.8-2.2,0.6-3.3,0.1c-1.6-0.8-3-2.1-4.7-2.6
	c-0.6-0.2-1.2-0.3-1.7-0.6c-0.9-0.5-0.9-1.5-0.3-2.2C236,113.3,236.6,113,237.3,112.7"/>
<path class="st13" d="M263.3,132.5c1,0.7,1.7,1.7,2.4,2.7c0.4,0.7,0.8,1.4,0.9,2.2c0.1,0.8-0.4,1.7-1.1,2c-1.1,0.4-2.1-0.6-2.9-1.4
	c-1.3-1.2-2.9-2.1-4.6-2.7c-1.9-0.6-3.3-3-1.3-4.5C258.5,129.4,261.8,131.3,263.3,132.5z"/>
<path class="st13" d="M255.5,160.8c-1.2,0-2.4,0.3-3.2,1.2c-0.8,0.9-0.9,2.6,0.1,3.2c0.3,0.2,0.6,0.2,0.9,0.3
	c2.7,0.5,5.7-0.2,8.1,1.2c1.2,0.7,3.1,2.9,4.6,1.6c0.9-0.8,0.5-2.6,0.1-3.5C264.2,161.5,258.6,160.6,255.5,160.8z"/>
<polygon class="st14" points="49.2,93.6 124,145 121.6,148.3 "/>
<path class="st15" d="M117.9,154.9c-4.4-1.9-18.6-2.2-14.3-14.8c3.4-10.1,20.3-11.7,11,4.7"/>
<g>
	<ellipse class="st16" cx="186.1" cy="109.2" rx="9.1" ry="3.9"/>
	<ellipse class="st16" cx="163.2" cy="109.2" rx="9.1" ry="3.9"/>
	<path class="st16" d="M172.2,109.2c0,0,2.5-1.2,4.8,0"/>
</g>
<path class="st17" d="M163.1,171.7c-5.3,1.4-12.4,2.1-20.3-2.8c-14.6-9.1-17.4-16.9-22.9-18.2c-5.5-1.3-14.6-1.5-16.3-6.9
	c-0.4,4.3,2.3,7.6,9.7,9.2c7.4,1.6,8.6,4.2,10.6,7.2c2.7,4,13.3,16.8,22.9,20.3c8.4,3,15.4,1.9,21.3-1.6
	C166,175.6,164.9,173.9,163.1,171.7z"/>
</svg>
